<svg version="1.1" viewBox="0.0 0.0 934.1784776902887 619.7086614173228" fill="none" stroke="none" stroke-linecap="square" stroke-miterlimit="10" xmlns:xlink="http://www.w3.org/1999/xlink" xmlns="http://www.w3.org/2000/svg"><clipPath id="p.0"><path d="m0 0l934.17847 0l0 619.7087l-934.17847 0l0 -619.7087z" clip-rule="nonzero"/></clipPath><g clip-path="url(#p.0)"><path fill="#000000" fill-opacity="0.0" d="m0 0l934.17847 0l0 619.7087l-934.17847 0z" fill-rule="evenodd"/><path fill="#ffffff" fill-opacity="0.6615" d="m54.979004 608.4304l0 0c0 -34.145935 27.680786 -61.82672 61.826767 -61.82672l0 0c16.397476 0 32.123367 6.513855 43.71814 18.108643c11.594757 11.594727 18.108643 27.320618 18.108643 43.71808l0 0c0 34.145996 -27.680801 61.826782 -61.826782 61.826782l0 0c-34.14598 0 -61.826767 -27.680786 -61.826767 -61.826782z" fill-rule="evenodd"/><path fill="#ffffff" fill-opacity="0.6615" d="m130.63255 598.92914l0 0c0 -34.145996 27.680786 -61.826782 61.826767 -61.826782l0 0c16.397476 0 32.123352 6.513855 43.718124 18.108643c11.594772 11.594788 18.108643 27.320679 18.108643 43.71814l0 0c0 34.145996 -27.680786 61.826782 -61.826767 61.826782l0 0c-34.14598 0 -61.826767 -27.680786 -61.826767 -61.826782z" fill-rule="evenodd"/><path fill="#ffffff" fill-opacity="0.6615" d="m146.63255 592.2887l0 0c0 -34.145935 27.680786 -61.826782 61.826767 -61.826782l0 0c16.397476 0 32.123352 6.513916 43.718124 18.108643c11.594772 11.594788 18.108658 27.320679 18.108658 43.71814l0 0c0 34.145996 -27.680801 61.826782 -61.826782 61.826782l0 0c-34.14598 0 -61.826767 -27.680786 -61.826767 -61.826782z" fill-rule="evenodd"/><path fill="#ffffff" fill-opacity="0.6615" d="m102.979004 649.50397l0 0c0 -34.145996 27.680786 -61.826782 61.826767 -61.826782l0 0c16.397476 0 32.123367 6.513855 43.71814 18.108643c11.594757 11.594727 18.108643 27.320618 18.108643 43.71814l0 0c0 34.145935 -27.680801 61.82672 -61.826782 61.82672l0 0c-34.14598 0 -61.826767 -27.680786 -61.826767 -61.82672z" fill-rule="evenodd"/><path fill="#ffffff" fill-opacity="0.6615" d="m47.254593 634.5932l0 0c0 -34.145996 27.680786 -61.826782 61.826775 -61.826782l0 0c16.397476 0 32.12336 6.513855 43.718132 18.108643c11.594757 11.594727 18.108643 27.320618 18.108643 43.71814l0 0c0 34.145935 -27.680801 61.82672 -61.826775 61.82672l0 0c-34.14599 0 -61.826775 -27.680786 -61.826775 -61.82672z" fill-rule="evenodd"/><path fill="#ffffff" fill-opacity="0.6615" d="m194.63255 640.2887l0 0c0 -34.145935 27.680786 -61.826782 61.826767 -61.826782l0 0c16.397491 0 32.123352 6.513916 43.71814 18.108643c11.594757 11.594788 18.108643 27.320679 18.108643 43.71814l0 0c0 34.145996 -27.680817 61.826782 -61.826782 61.826782l0 0c-34.14598 0 -61.826767 -27.680786 -61.826767 -61.826782z" fill-rule="evenodd"/><path fill="#ffffff" fill-opacity="0.6615" d="m218.35957 608.4304l0 0c0 -34.145935 27.680801 -61.82672 61.826767 -61.82672l0 0c16.397491 0 32.123383 6.513855 43.71814 18.108643c11.594757 11.594727 18.108643 27.320618 18.108643 43.71808l0 0c0 34.145996 -27.680786 61.826782 -61.826782 61.826782l0 0c-34.145966 0 -61.826767 -27.680786 -61.826767 -61.826782z" fill-rule="evenodd"/><path fill="#ffffff" fill-opacity="0.6615" d="m218.35957 649.50397l0 0c0 -34.145996 27.680801 -61.826782 61.826767 -61.826782l0 0c16.397491 0 32.123383 6.513855 43.71814 18.108643c11.594757 11.594727 18.108643 27.320618 18.108643 43.71814l0 0c0 34.145935 -27.680786 61.82672 -61.826782 61.82672l0 0c-34.145966 0 -61.826767 -27.680786 -61.826767 -61.82672z" fill-rule="evenodd"/><path fill="#ffffff" fill-opacity="0.6615" d="m270.2861 608.4304l0 0c0 -34.145935 27.680786 -61.82672 61.82675 -61.82672l0 0c16.397491 0 32.123383 6.513855 43.71814 18.108643c11.594757 11.594727 18.108643 27.320618 18.108643 43.71808l0 0c0 34.145996 -27.680786 61.826782 -61.826782 61.826782l0 0c-34.145966 0 -61.82675 -27.680786 -61.82675 -61.826782z" fill-rule="evenodd"/><path fill="#ffffff" fill-opacity="0.6615" d="m304.43176 608.2887l0 0c0 -34.145935 27.680786 -61.826782 61.826782 -61.826782l0 0c16.39746 0 32.123352 6.513916 43.71811 18.108643c11.594788 11.594788 18.108643 27.320679 18.108643 43.71814l0 0c0 34.145996 -27.680786 61.826782 -61.82675 61.826782l0 0c-34.145996 0 -61.826782 -27.680786 -61.826782 -61.826782z" fill-rule="evenodd"/><path fill="#ffffff" fill-opacity="0.6615" d="m382.2861 626.063l0 0c0 -34.145996 27.680786 -61.826782 61.82675 -61.826782l0 0c16.397491 0 32.123383 6.513916 43.71814 18.108643c11.594757 11.594788 18.108643 27.320679 18.108643 43.71814l0 0c0 34.145996 -27.680786 61.826782 -61.826782 61.826782l0 0c-34.145966 0 -61.82675 -27.680786 -61.82675 -61.826782z" fill-rule="evenodd"/><path fill="#ffffff" fill-opacity="0.6615" d="m350.2861 608.2887l0 0c0 -34.145935 27.680786 -61.826782 61.82675 -61.826782l0 0c16.397491 0 32.123383 6.513916 43.71814 18.108643c11.594757 11.594788 18.108643 27.320679 18.108643 43.71814l0 0c0 34.145996 -27.680786 61.826782 -61.826782 61.826782l0 0c-34.145966 0 -61.82675 -27.680786 -61.82675 -61.826782z" fill-rule="evenodd"/><path fill="#ffffff" fill-opacity="0.6615" d="m287.71652 658.1732l0 0c0 -34.145996 27.680817 -61.826782 61.826782 -61.826782l0 0c16.397491 0 32.123352 6.513916 43.71814 18.108643c11.594757 11.594788 18.108643 27.320679 18.108643 43.71814l0 0c0 34.145996 -27.680786 61.826782 -61.826782 61.826782l0 0c-34.145966 0 -61.826782 -27.680786 -61.826782 -61.826782z" fill-rule="evenodd"/><path fill="#ffffff" fill-opacity="0.6615" d="m260.36746 662.5197l0 0c0 -34.145996 27.680786 -61.826782 61.82675 -61.826782l0 0c16.397491 0 32.123383 6.513855 43.71814 18.108643c11.594757 11.594727 18.108643 27.320618 18.108643 43.71814l0 0c0 34.145935 -27.680786 61.82672 -61.826782 61.82672l0 0c-34.145966 0 -61.82675 -27.680786 -61.82675 -61.82672z" fill-rule="evenodd"/><path fill="#ffffff" fill-opacity="0.6615" d="m164.06299 634.5932l0 0c0 -34.145996 27.680786 -61.826782 61.826782 -61.826782l0 0c16.397476 0 32.123352 6.513855 43.71811 18.108643c11.594788 11.594727 18.108643 27.320618 18.108643 43.71814l0 0c0 34.145935 -27.680786 61.82672 -61.82675 61.82672l0 0c-34.145996 0 -61.826782 -27.680786 -61.826782 -61.82672z" fill-rule="evenodd"/><path fill="#ffffff" fill-opacity="0.6615" d="m45.220474 640.2887l0 0c0 -34.145935 27.680786 -61.826782 61.826767 -61.826782l0 0c16.397484 0 32.123367 6.513916 43.71814 18.108643c11.594757 11.594788 18.108627 27.320679 18.108627 43.71814l0 0c0 34.145996 -27.680786 61.826782 -61.826767 61.826782l0 0c-34.14598 0 -61.826767 -27.680786 -61.826767 -61.826782z" fill-rule="evenodd"/><path fill="#ffffff" fill-opacity="0.6615" d="m380.04724 658.1732l0 0c0 -34.145996 27.680786 -61.826782 61.826782 -61.826782l0 0c16.39746 0 32.123352 6.513916 43.71811 18.108643c11.594788 11.594788 18.108643 27.320679 18.108643 43.71814l0 0c0 34.145996 -27.680786 61.826782 -61.82675 61.826782l0 0c-34.145996 0 -61.826782 -27.680786 -61.826782 -61.826782z" fill-rule="evenodd"/><path fill="#ffffff" fill-opacity="0.6615" d="m444.80054 640.2887l0 0c0 -34.145935 27.680786 -61.826782 61.82675 -61.826782l0 0c16.397491 0 32.123383 6.513916 43.71811 18.108643c11.594788 11.594788 18.108643 27.320679 18.108643 43.71814l0 0c0 34.145996 -27.680786 61.826782 -61.82675 61.826782l0 0c-34.145966 0 -61.82675 -27.680786 -61.82675 -61.826782z" fill-rule="evenodd"/><path fill="#ffffff" fill-opacity="0.6615" d="m428.80054 598.92914l0 0c0 -34.145996 27.680786 -61.826782 61.82675 -61.826782l0 0c16.397491 0 32.123383 6.513855 43.71811 18.108643c11.594788 11.594788 18.108643 27.320679 18.108643 43.71814l0 0c0 34.145996 -27.680786 61.826782 -61.82675 61.826782l0 0c-34.145966 0 -61.82675 -27.680786 -61.82675 -61.826782z" fill-rule="evenodd"/><path fill="#ffffff" fill-opacity="0.6615" d="m521.93964 592.2887l0 0c0 -34.145935 27.680786 -61.826782 61.826782 -61.826782l0 0c16.39746 0 32.123352 6.513916 43.71814 18.108643c11.594727 11.594788 18.108643 27.320679 18.108643 43.71814l0 0c0 34.145996 -27.680786 61.826782 -61.826782 61.826782l0 0c-34.145996 0 -61.826782 -27.680786 -61.826782 -61.826782z" fill-rule="evenodd"/><path fill="#ffffff" fill-opacity="0.6615" d="m533.4619 626.063l0 0c0 -34.145996 27.680847 -61.826782 61.826782 -61.826782l0 0c16.397522 0 32.123352 6.513916 43.71814 18.108643c11.594788 11.594788 18.108643 27.320679 18.108643 43.71814l0 0c0 34.145996 -27.680786 61.826782 -61.826782 61.826782l0 0c-34.145935 0 -61.826782 -27.680786 -61.826782 -61.826782z" fill-rule="evenodd"/><path fill="#ffffff" fill-opacity="0.6615" d="m482.2126 582.5197l0 0c0 -34.145996 27.680817 -61.826782 61.826782 -61.826782l0 0c16.39746 0 32.123352 6.513855 43.71814 18.108643c11.594788 11.594727 18.108643 27.320618 18.108643 43.71814l0 0c0 34.145935 -27.680786 61.82672 -61.826782 61.82672l0 0c-34.145966 0 -61.826782 -27.680786 -61.826782 -61.82672z" fill-rule="evenodd"/><path fill="#ffffff" fill-opacity="0.6615" d="m643.9685 598.92914l0 0c0 -34.145996 27.680786 -61.826782 61.826782 -61.826782l0 0c16.39746 0 32.123352 6.513855 43.71814 18.108643c11.594727 11.594788 18.108643 27.320679 18.108643 43.71814l0 0c0 34.145996 -27.680786 61.826782 -61.826782 61.826782l0 0c-34.145996 0 -61.826782 -27.680786 -61.826782 -61.826782z" fill-rule="evenodd"/><path fill="#ffffff" fill-opacity="0.6615" d="m464.24933 608.2887l0 0c0 -34.145935 27.680817 -61.826782 61.826782 -61.826782l0 0c16.39746 0 32.123352 6.513916 43.71814 18.108643c11.594788 11.594788 18.108643 27.320679 18.108643 43.71814l0 0c0 34.145996 -27.680786 61.826782 -61.826782 61.826782l0 0c-34.145966 0 -61.826782 -27.680786 -61.826782 -61.826782z" fill-rule="evenodd"/><path fill="#ffffff" fill-opacity="0.6615" d="m456.24933 608.2887l0 0c0 -34.145935 27.680817 -61.826782 61.826782 -61.826782l0 0c16.39746 0 32.123352 6.513916 43.71814 18.108643c11.594788 11.594788 18.108643 27.320679 18.108643 43.71814l0 0c0 34.145996 -27.680786 61.826782 -61.826782 61.826782l0 0c-34.145966 0 -61.826782 -27.680786 -61.826782 -61.826782z" fill-rule="evenodd"/><path fill="#ffffff" fill-opacity="0.6615" d="m512.2493 662.5197l0 0c0 -34.145996 27.680786 -61.826782 61.826782 -61.826782l0 0c16.39746 0 32.123352 6.513855 43.71814 18.108643c11.594788 11.594727 18.108643 27.320618 18.108643 43.71814l0 0c0 34.145935 -27.680786 61.82672 -61.826782 61.82672l0 0c-34.145996 0 -61.826782 -27.680786 -61.826782 -61.82672z" fill-rule="evenodd"/><path fill="#ffffff" fill-opacity="0.6615" d="m562.2126 614.5197l0 0c0 -34.145996 27.680786 -61.826782 61.826782 -61.826782l0 0c16.39746 0 32.123352 6.513855 43.71814 18.108643c11.594788 11.594727 18.108643 27.320618 18.108643 43.71814l0 0c0 34.145935 -27.680786 61.82672 -61.826782 61.82672l0 0c-34.145996 0 -61.826782 -27.680786 -61.826782 -61.82672z" fill-rule="evenodd"/><path fill="#ffffff" fill-opacity="0.6615" d="m743.62335 592.2887l0 0c0 -34.145935 27.680786 -61.826782 61.826782 -61.826782l0 0c16.39746 0 32.123352 6.513916 43.71814 18.108643c11.594727 11.594788 18.108643 27.320679 18.108643 43.71814l0 0c0 34.145996 -27.680786 61.826782 -61.826782 61.826782l0 0c-34.145996 0 -61.826782 -27.680786 -61.826782 -61.826782z" fill-rule="evenodd"/><path fill="#ffffff" fill-opacity="0.6615" d="m594.2126 592.2887l0 0c0 -34.145935 27.680786 -61.826782 61.826782 -61.826782l0 0c16.39746 0 32.123352 6.513916 43.71814 18.108643c11.594788 11.594788 18.108643 27.320679 18.108643 43.71814l0 0c0 34.145996 -27.680786 61.826782 -61.826782 61.826782l0 0c-34.145996 0 -61.826782 -27.680786 -61.826782 -61.826782z" fill-rule="evenodd"/><path fill="#ffffff" fill-opacity="0.6615" d="m19.751968 649.50397l0 0c0 -34.145996 27.68079 -61.826782 61.826775 -61.826782l0 0c16.397476 0 32.12336 6.513855 43.718124 18.108643c11.594765 11.594727 18.10865 27.320618 18.10865 43.71814l0 0c0 34.145935 -27.680794 61.82672 -61.826775 61.82672l0 0c-34.145985 0 -61.826775 -27.680786 -61.826775 -61.82672z" fill-rule="evenodd"/><path fill="#ffffff" fill-opacity="0.6615" d="m861.50397 626.063l0 0c0 -34.145996 27.680786 -61.826782 61.82672 -61.826782l0 0c16.397522 0 32.123352 6.513916 43.71814 18.108643c11.594788 11.594788 18.108643 27.320679 18.108643 43.71814l0 0c0 34.145996 -27.680786 61.826782 -61.826782 61.826782l0 0c-34.145935 0 -61.82672 -27.680786 -61.82672 -61.826782z" fill-rule="evenodd"/><path fill="#ffffff" fill-opacity="0.6615" d="m663.83203 608.2887l0 0c0 -34.145935 27.680786 -61.826782 61.826782 -61.826782l0 0c16.39746 0 32.123352 6.513916 43.71808 18.108643c11.594788 11.594788 18.108643 27.320679 18.108643 43.71814l0 0c0 34.145996 -27.680786 61.826782 -61.82672 61.826782l0 0c-34.145996 0 -61.826782 -27.680786 -61.826782 -61.826782z" fill-rule="evenodd"/><path fill="#ffffff" fill-opacity="0.6615" d="m692.17584 620.6142l0 0c0 -34.145996 27.680786 -61.826782 61.826782 -61.826782l0 0c16.39746 0 32.123352 6.513855 43.71814 18.108643c11.594788 11.594727 18.108643 27.320618 18.108643 43.71814l0 0c0 34.145935 -27.680786 61.82672 -61.826782 61.82672l0 0c-34.145996 0 -61.826782 -27.680786 -61.826782 -61.82672z" fill-rule="evenodd"/><path fill="#ffffff" fill-opacity="0.6615" d="m724.17584 634.5932l0 0c0 -34.145996 27.680786 -61.826782 61.826782 -61.826782l0 0c16.39746 0 32.123352 6.513855 43.71814 18.108643c11.594788 11.594727 18.108643 27.320618 18.108643 43.71814l0 0c0 34.145935 -27.680786 61.82672 -61.826782 61.82672l0 0c-34.145996 0 -61.826782 -27.680786 -61.826782 -61.82672z" fill-rule="evenodd"/><path fill="#ffffff" fill-opacity="0.6615" d="m762.0656 614.5197l0 0c0 -34.145996 27.680786 -61.826782 61.826782 -61.826782l0 0c16.39746 0 32.123352 6.513855 43.71814 18.108643c11.594727 11.594727 18.108643 27.320618 18.108643 43.71814l0 0c0 34.145935 -27.680786 61.82672 -61.826782 61.82672l0 0c-34.145996 0 -61.826782 -27.680786 -61.826782 -61.82672z" fill-rule="evenodd"/><path fill="#ffffff" fill-opacity="0.6615" d="m743.6247 608.2887l0 0c0 -34.145935 27.680786 -61.826782 61.82672 -61.826782l0 0c16.397522 0 32.123413 6.513916 43.71814 18.108643c11.594788 11.594788 18.108643 27.320679 18.108643 43.71814l0 0c0 34.145996 -27.680786 61.826782 -61.826782 61.826782l0 0c-34.145935 0 -61.82672 -27.680786 -61.82672 -61.826782z" fill-rule="evenodd"/><path fill="#ffffff" fill-opacity="0.6615" d="m663.83203 608.2887l0 0c0 -34.145935 27.680786 -61.826782 61.826782 -61.826782l0 0c16.39746 0 32.123352 6.513916 43.71808 18.108643c11.594788 11.594788 18.108643 27.320679 18.108643 43.71814l0 0c0 34.145996 -27.680786 61.826782 -61.82672 61.826782l0 0c-34.145996 0 -61.826782 -27.680786 -61.826782 -61.826782z" fill-rule="evenodd"/><path fill="#ffffff" fill-opacity="0.6615" d="m310.15485 598.92914l0 0c0 -34.145996 27.680786 -61.826782 61.826782 -61.826782l0 0c16.397491 0 32.123352 6.513855 43.71814 18.108643c11.594757 11.594788 18.108643 27.320679 18.108643 43.71814l0 0c0 34.145996 -27.680786 61.826782 -61.826782 61.826782l0 0c-34.145996 0 -61.826782 -27.680786 -61.826782 -61.826782z" fill-rule="evenodd"/><path fill="#ffffff" fill-opacity="0.6615" d="m530.2126 582.5197l0 0c0 -34.145996 27.680786 -61.826782 61.826782 -61.826782l0 0c16.39746 0 32.123352 6.513855 43.71814 18.108643c11.594788 11.594727 18.108643 27.320618 18.108643 43.71814l0 0c0 34.145935 -27.680786 61.82672 -61.826782 61.82672l0 0c-34.145996 0 -61.826782 -27.680786 -61.826782 -61.82672z" fill-rule="evenodd"/><path fill="#ffffff" fill-opacity="0.6615" d="m546.2126 598.5197l0 0c0 -34.145996 27.680786 -61.826782 61.826782 -61.826782l0 0c16.39746 0 32.123352 6.513855 43.71814 18.108643c11.594788 11.594727 18.108643 27.320618 18.108643 43.71814l0 0c0 34.145935 -27.680786 61.82672 -61.826782 61.82672l0 0c-34.145996 0 -61.826782 -27.680786 -61.826782 -61.82672z" fill-rule="evenodd"/><path fill="#ffffff" fill-opacity="0.6615" d="m562.2126 614.5197l0 0c0 -34.145996 27.680786 -61.826782 61.826782 -61.826782l0 0c16.39746 0 32.123352 6.513855 43.71814 18.108643c11.594788 11.594727 18.108643 27.320618 18.108643 43.71814l0 0c0 34.145935 -27.680786 61.82672 -61.826782 61.82672l0 0c-34.145996 0 -61.826782 -27.680786 -61.826782 -61.82672z" fill-rule="evenodd"/><path fill="#ffffff" fill-opacity="0.6615" d="m456.24933 690.1732l0 0c0 -34.145996 27.680817 -61.826782 61.826782 -61.826782l0 0c16.39746 0 32.123352 6.513916 43.71814 18.108643c11.594788 11.594788 18.108643 27.320679 18.108643 43.71814l0 0c0 34.145996 -27.680786 61.826782 -61.826782 61.826782l0 0c-34.145966 0 -61.826782 -27.680786 -61.826782 -61.826782z" fill-rule="evenodd"/><path fill="#ffffff" fill-opacity="0.6615" d="m654.2677 626.063l0 0c0 -34.145996 27.680786 -61.826782 61.826782 -61.826782l0 0c16.39746 0 32.123352 6.513916 43.71814 18.108643c11.594788 11.594788 18.108643 27.320679 18.108643 43.71814l0 0c0 34.145996 -27.680786 61.826782 -61.826782 61.826782l0 0c-34.145996 0 -61.826782 -27.680786 -61.826782 -61.826782z" fill-rule="evenodd"/><path fill="#ffffff" fill-opacity="0.6615" d="m416.96457 634.5932l0 0c0 -34.145996 27.680786 -61.826782 61.826782 -61.826782l0 0c16.39746 0 32.123352 6.513855 43.71811 18.108643c11.594788 11.594727 18.108643 27.320618 18.108643 43.71814l0 0c0 34.145935 -27.680786 61.82672 -61.82675 61.82672l0 0c-34.145996 0 -61.826782 -27.680786 -61.826782 -61.82672z" fill-rule="evenodd"/><path fill="#ffffff" fill-opacity="0.6615" d="m-26.451443 634.5932l0 0c0 -34.145996 27.680788 -61.826782 61.82677 -61.826782l0 0c16.39748 0 32.12336 6.513855 43.718132 18.108643c11.594765 11.594727 18.108643 27.320618 18.108643 43.71814l0 0c0 34.145935 -27.680794 61.82672 -61.826775 61.82672l0 0c-34.145985 0 -61.82677 -27.680786 -61.82677 -61.82672z" fill-rule="evenodd"/><path fill="#ffffff" fill-opacity="0.6615" d="m831.6877 614.5197l0 0c0 -34.145996 27.680786 -61.826782 61.826782 -61.826782l0 0c16.39746 0 32.123352 6.513855 43.71808 18.108643c11.594788 11.594727 18.108643 27.320618 18.108643 43.71814l0 0c0 34.145935 -27.680786 61.82672 -61.82672 61.82672l0 0c-34.145996 0 -61.826782 -27.680786 -61.826782 -61.82672z" fill-rule="evenodd"/><path fill="#ffffff" fill-opacity="0.6615" d="m811.5407 634.5932l0 0c0 -34.145996 27.680786 -61.826782 61.82672 -61.826782l0 0c16.397522 0 32.123413 6.513855 43.71814 18.108643c11.594788 11.594727 18.108643 27.320618 18.108643 43.71814l0 0c0 34.145935 -27.680786 61.82672 -61.826782 61.82672l0 0c-34.145935 0 -61.82672 -27.680786 -61.82672 -61.82672z" fill-rule="evenodd"/><path fill="#ffffff" fill-opacity="0.6615" d="m805.7244 620.6142l0 0c0 -34.145996 27.680786 -61.826782 61.826782 -61.826782l0 0c16.39746 0 32.123352 6.513855 43.71808 18.108643c11.594788 11.594727 18.108643 27.320618 18.108643 43.71814l0 0c0 34.145935 -27.680786 61.82672 -61.82672 61.82672l0 0c-34.145996 0 -61.826782 -27.680786 -61.826782 -61.82672z" fill-rule="evenodd"/><path fill="#ffffff" fill-opacity="0.6615" d="m-54.40945 672.9029l0 0c0 -34.145996 27.68079 -61.826782 61.826775 -61.826782l0 0c16.39748 0 32.12336 6.513855 43.71813 18.108643c11.594769 11.594788 18.108643 27.320679 18.108643 43.71814l0 0c0 34.145996 -27.68079 61.826782 -61.82677 61.826782l0 0c-34.145985 0 -61.826775 -27.680786 -61.826775 -61.826782z" fill-rule="evenodd"/></g></svg>