<svg version="1.1" height="150px" viewBox="0.0 0.0 768.2362204724409 140.4278215223097" fill="none" stroke="none" stroke-linecap="square" stroke-miterlimit="10" xmlns:xlink="http://www.w3.org/1999/xlink" xmlns="http://www.w3.org/2000/svg"><clipPath id="p.0"><path d="m0 0l768.2362 0l0 140.42783l-768.2362 0l0 -140.42783z" clip-rule="nonzero"/></clipPath><g clip-path="url(#p.0)"><path fill="#000000" fill-opacity="0.0" d="m0 0l768.2362 0l0 140.42783l-768.2362 0z" fill-rule="evenodd"/><path fill="#000000" fill-opacity="0.0" d="m-4.5274906 0l769.73224 0l0 394.01575l-769.73224 0z" fill-rule="evenodd"/><path fill="#ffffff" d="m50.269386 74.30062l0 -13.453125q0 -2.765625 -1.0625 -5.21875q-1.046875 -2.46875 -2.875 -4.296875q-1.828125 -1.828125 -4.296875 -2.875q-2.453125 -1.0625 -5.21875 -1.0625q-2.765625 0 -5.234377 1.0625q-2.453125 1.046875 -4.28125 2.875q-1.828125 1.828125 -2.890625 4.296875q-1.046875 2.453125 -1.046875 5.21875l0 13.453125l26.906252 0zm13.453125 26.859375l-13.453125 0l0 -13.453125l-26.906252 0l0 13.453125l-13.40625 0l0 -40.3125q0 -5.578125 2.109375 -10.46875q2.109375 -4.90625 5.734375 -8.5625q3.640625 -3.65625 8.53125 -5.765625q4.90625 -2.109375 10.484377 -2.109375q5.578125 0 10.46875 2.109375q4.90625 2.109375 8.5625 5.765625q3.65625 3.65625 5.765625 8.5625q2.109375 4.890625 2.109375 10.46875l0 40.3125zm65.43749 -20.15625q0 4.171875 -1.5937424 7.828125q-1.59375 3.65625 -4.34375 6.40625q-2.734375 2.734375 -6.390625 4.328125q-3.65625 1.59375 -7.828125 1.59375l-33.609375 0l0 -67.21875l33.609375 0q4.171875 0 7.828125 1.59375q3.65625 1.59375 6.390625 4.34375q2.75 2.734375 4.34375 6.390625q1.5937424 3.65625 1.5937424 7.828125q0 1.875 -0.515625 3.84375q-0.515625 1.96875 -1.4531174 3.796875q-0.9375 1.828125 -2.25 3.328125q-1.3125 1.5 -2.90625 2.484375q1.640625 0.890625 2.953125 2.421875q1.3125 1.515625 2.25 3.34375q0.9374924 1.828125 1.4218674 3.828125q0.5 1.984375 0.5 3.859375zm-40.312492 6.703125l20.15625 0q1.40625 0 2.625 -0.515625q1.21875 -0.515625 2.125 -1.421875q0.921875 -0.921875 1.4375 -2.140625q0.515625 -1.21875 0.515625 -2.625q0 -1.40625 -0.515625 -2.625q-0.515625 -1.21875 -1.4375 -2.125q-0.90625 -0.921875 -2.125 -1.4375q-1.21875 -0.515625 -2.625 -0.515625l-20.15625 0l0 13.40625zm0 -26.859375l20.15625 0q1.40625 0 2.625 -0.515625q1.21875 -0.515625 2.125 -1.421875q0.921875 -0.921875 1.4375 -2.15625q0.515625 -1.25 0.515625 -2.65625q0 -1.40625 -0.515625 -2.625q-0.515625 -1.21875 -1.4375 -2.125q-0.90625 -0.921875 -2.125 -1.4375q-1.21875 -0.515625 -2.625 -0.515625l-20.15625 0l0 13.453125zm116.34374 6.984375q0 4.78125 -1.25 9.21875q-1.234375 4.421875 -3.484375 8.296875q-2.25 3.859375 -5.4375 7.046875q-3.1875 3.1875 -7.03125 5.46875q-3.84375 2.265625 -8.296875 3.5q-4.453125 1.25 -9.234375 1.25q-4.78125 0 -9.21875 -1.25q-4.421875 -1.234375 -8.296875 -3.5q-3.859375 -2.28125 -7.046875 -5.46875q-3.1875 -3.1875 -5.46875 -7.046875q-2.265625 -3.875 -3.515625 -8.296875q-1.234375 -4.4375 -1.234375 -9.21875q0 -4.78125 1.234375 -9.234375q1.25 -4.453125 3.515625 -8.296875q2.28125 -3.84375 5.46875 -7.03125q3.1875 -3.1875 7.046875 -5.4375q3.875 -2.25 8.296875 -3.484375q4.4375 -1.25 9.21875 -1.25q4.78125 0 9.234375 1.25q4.453125 1.234375 8.296875 3.484375q3.84375 2.25 7.03125 5.4375q3.1875 3.1875 5.4375 7.03125q2.25 3.84375 3.484375 8.296875q1.25 4.453125 1.25 9.234375zm-13.359375 0q0 -4.40625 -1.6875 -8.3125q-1.6875 -3.921875 -4.578125 -6.796875q-2.875 -2.890625 -6.796875 -4.578125q-3.90625 -1.6875 -8.3125 -1.6875q-4.453125 0 -8.34375 1.6875q-3.890625 1.6875 -6.796875 4.578125q-2.90625 2.875 -4.59375 6.796875q-1.6875 3.90625 -1.6875 8.3125q0 4.40625 1.6875 8.28125q1.6875 3.859375 4.59375 6.765625q2.90625 2.90625 6.796875 4.59375q3.890625 1.6875 8.34375 1.6875q4.40625 0 8.3125 -1.6875q3.921875 -1.6875 6.796875 -4.59375q2.890625 -2.90625 4.578125 -6.765625q1.6875 -3.875 1.6875 -8.28125zm75.1875 6.46875q0 5.578125 -2.109375 10.484375q-2.109375 4.890625 -5.765625 8.53125q-3.65625 3.625 -8.5625 5.734375q-4.890625 2.109375 -10.46875 2.109375q-5.578125 0 -10.484375 -2.109375q-4.890625 -2.109375 -8.53125 -5.734375q-3.625 -3.640625 -5.734375 -8.53125q-2.109375 -4.90625 -2.109375 -10.484375l0 -40.359375l13.40625 0l0 40.359375q0 2.765625 1.046875 5.203125q1.0625 2.4375 2.890625 4.265625q1.828125 1.828125 4.28125 2.890625q2.46875 1.046875 5.234375 1.046875q2.765625 0 5.21875 -1.046875q2.46875 -1.0625 4.296875 -2.890625q1.828125 -1.828125 2.875 -4.265625q1.0625 -2.4375 1.0625 -5.203125l0 -40.359375l13.453125 0l0 40.359375zm39.890625 26.859375l-13.40625 0l0 -53.765625l-20.203125 0l0 -13.453125l53.765625 0l0 13.453125l-20.15625 0l0 53.765625zm107.15625 -26.859375q0 5.578125 -2.109375 10.484375q-2.109375 4.890625 -5.765625 8.53125q-3.65625 3.625 -8.5625 5.734375q-4.890625 2.109375 -10.46875 2.109375q-5.578125 0 -10.484375 -2.109375q-4.890625 -2.109375 -8.53125 -5.734375q-3.625 -3.640625 -5.734375 -8.53125q-2.109375 -4.90625 -2.109375 -10.484375l0 -40.359375l13.40625 0l0 40.359375q0 2.765625 1.046875 5.203125q1.0625 2.4375 2.890625 4.265625q1.828125 1.828125 4.28125 2.890625q2.46875 1.046875 5.234375 1.046875q2.765625 0 5.21875 -1.046875q2.46875 -1.0625 4.296875 -2.890625q1.828125 -1.828125 2.875 -4.265625q1.0625 -2.4375 1.0625 -5.203125l0 -40.359375l13.453125 0l0 40.359375zm7.734375 -20.203125q0 -4.171875 1.59375 -7.828125q1.59375 -3.65625 4.328125 -6.390625q2.75 -2.75 6.40625 -4.34375q3.65625 -1.59375 7.828125 -1.59375l30.84375 0l0 13.453125l-30.84375 0q-1.40625 0 -2.625 0.515625q-1.21875 0.515625 -2.140625 1.4375q-0.90625 0.90625 -1.421875 2.125q-0.515625 1.21875 -0.515625 2.625q0 1.40625 0.515625 2.65625q0.515625 1.234375 1.421875 2.15625q0.921875 0.90625 2.140625 1.421875q1.21875 0.515625 2.625 0.515625l13.453125 0q4.171875 0 7.84375 1.578125q3.6875 1.5625 6.421875 4.3125q2.75 2.734375 4.3125 6.421875q1.578125 3.671875 1.578125 7.84375q0 4.171875 -1.578125 7.828125q-1.5625 3.65625 -4.3125 6.40625q-2.734375 2.734375 -6.421875 4.328125q-3.671875 1.59375 -7.84375 1.59375l-29.859375 0l0 -13.453125l29.859375 0q1.40625 0 2.625 -0.515625q1.21875 -0.515625 2.125 -1.421875q0.921875 -0.921875 1.4375 -2.140625q0.515625 -1.21875 0.515625 -2.625q0 -1.40625 -0.515625 -2.625q-0.515625 -1.21875 -1.4375 -2.125q-0.90625 -0.921875 -2.125 -1.4375q-1.21875 -0.515625 -2.625 -0.515625l-13.453125 0q-4.171875 0 -7.828125 -1.59375q-3.65625 -1.59375 -6.40625 -4.328125q-2.734375 -2.75 -4.328125 -6.421875q-1.59375 -3.6875 -1.59375 -7.859375z" fill-rule="nonzero"/></g></svg>