<?xml version="1.0" encoding="utf-8"?>
<!--Designed by Vexels.com - 2018 All Rights Reserved - https://vexels.com/terms-and-conditions/-->
<svg version="1.1" id="Layer_1" xmlns="http://www.w3.org/2000/svg" xmlns:xlink="http://www.w3.org/1999/xlink" x="0px" y="0px"
	 viewBox="0 0 1200 1200" enable-background="new 0 0 1200 1200" xml:space="preserve" width="400px">
	 <style>
     /* <![CDATA[ */

	 #Layer_1 {
         transform: translatey(0px);
	     animation: float 5s ease-in-out infinite;
        }

        @keyframes float {
	0% {
		
		transform: translatey(-5px);
	}
	50% {
		
		transform: translatey(-20px);
	}
	100% {
		transform: translatey(0px);
	}
}

#Layer_1:active{


}

        /* ]]> */

  </style>
<g>
	<g>
		<path fill="#35215E" d="M307.456,658.604c-7.562,22.911-15.179,20.147-37.486,19.909c-0.884,7.204-1.874,14.62-2.689,22.056
			c-1.792,16.35-2.84,32.308,2.437,48.715c6.124,19.037-13.198,36.808-32.514,30.72c-4.301-1.356-7.995-5.964-10.947-9.852
			c-2.371-3.123-3.198-7.418-4.458-10.566c-10.239,3.057-20.37,9.336-29.042,7.732c-8.227-1.523-14.927-11.302-22.399-17.534
			c-22.169,12.138-25.138,11.507-37.32-8.16c-21.807,0.411-27.121-5.604-26.476-28.438c0.185-6.539-0.066-13.862-2.763-19.575
			c-10.719-22.705-11.143-47.009-11.762-71.095c-0.766-29.796-0.064-59.638,0.406-89.454c0.587-37.224,5.281-73.974,18.282-108.975
			c6.413-17.265,15.699-33.311,30.8-45.416c20.898-16.753,41.34-34.165,65.204-46.57c12.218-6.351,25.117-11.897,38.31-15.747
			c19.68-5.744,39.891-9.667,61.355-14.713c1.746-8.581,4.134-17.406,5.258-26.388c3.258-26.049,5.863-52.18,8.997-78.246
			c3.758-31.248,14.421-60.622,32.228-85.973c14.543-20.704,34.818-36.798,62.489-37.694c14.891-0.482,29.818,0.177,44.729,0.263
			c5.065,0.029,10.131-0.118,14.252-0.173c1.562-1.87,2.435-2.557,2.842-3.455c9.843-21.676,9.894-22.018,32.805-17.982
			c41.023,7.227,82.028,14.587,122.914,22.542c18.085,3.519,35.968,8.24,53.737,13.157c10.27,2.842,19.044,8.535,20.659,20.353
			c1.165,8.526,6.561,11.047,13.806,14.203c25.282,11.015,47.889,26.902,64.821,48.483c13.202,16.826,16.991,38.274,17.625,59.751
			c0.93,31.511-2.473,62.676-7.547,93.709c-0.739,4.52-1.059,9.109-1.631,14.181c12.373,9.634,24.507,19.093,36.655,28.534
			c5.919,4.6,12.802,5.377,18.889,1.748c14.053-8.378,28.38-16.627,41.132-26.769c13.228-10.521,25.051-22.904,36.816-35.12
			c4.095-4.253,6.811-10.186,9.068-15.79c6.411-15.925,21.792-24.742,38.125-19.531c7.125,2.273,13.021,2.538,18.929-1.317
			c21.987-14.348,43.247-7.765,62.321,4.608c20.51,13.306,36.259,31.982,45.537,55.157c8.577,21.424,8.594,43.055,0.148,64.584
			c-2.441,6.224-4.911,12.463-7.857,18.455c-4.016,8.168-10.336,14.931-19.252,16.421c-8.686,1.451-12.043,6.884-15.115,13.517
			c-17.604,38.01-43.191,70.474-75.578,96.102c-18.139,14.353-41.42,22.352-62.741,32.462c-7.806,3.701-16.49,6.119-25.037,7.571
			c-19.644,3.335-39.403,6.135-59.205,8.354c-15.472,1.734-29.245-3.788-42.247-11.953c-12.12-7.611-24.641-14.583-39.101-23.08
			c-6.419,25.987-13.264,50.111-18.179,74.623c-4.768,23.78-10.355,47.146-18.419,70.084c-4.524,12.868-11.867,19.872-25.049,21.405
			c-2.508,0.292-4.971,0.968-7.794,1.534c-9.061,19.18-6.012,38.49-1.252,57.482c3.496,13.947,8.849,27.42,13.15,41.175
			c6.606,21.126,12.816,42.378,19.554,63.462c17.379,54.385-5.215,98.413-53.236,121.55c-11.551,5.565-23.19,11.557-35.459,14.867
			c-14.787,3.989-30.28,5.38-45.485,7.785c-5.077,0.802-10.22,1.849-15.312,1.747c-9.128-0.184-14.108,4.001-16.892,12.481
			c-1.406,4.283-4.358,8.142-7.009,11.913c-4.626,6.582-10.556,12.672-19.129,9.909c-8.856-2.854-17.262-8.042-18.253-18.828
			c-1.644-17.886-2.633-35.831-4.008-53.743c-0.269-3.496-0.027-7.589-1.744-10.326c-12.825-20.446-9.112-41.337-2.794-62.585
			c3.303-11.107,7.885-20.621,17.852-27.853c7.751-5.624,13.613-13.853,20.533-21.155c-1.143-2.941-1.983-5.278-2.95-7.562
			c-4.77-11.267-10.085-22.338-14.167-33.847c-2.331-6.573-4.887-11.11-12.66-10.666c-3.052,0.174-6.147-0.533-9.229-0.715
			c-15.293-0.905-29.225-0.328-37.321,16.709c-4.304,9.057-12.847,15.999-18.645,24.465c-20.235,29.549-26.115,63.143-26.761,98.112
			c-0.58,31.386-0.12,62.843-2.172,94.134c-1.568,23.924-7.591,46.359-30.992,60.53c-10.186,6.168-17.714,16.823-26.195,25.683
			c-8.094,8.456-17.141,14.626-29.313,15.251c-15.936,0.819-25.934-7.522-25.648-23.424c0.201-11.224,2.009-22.5,4.051-33.578
			c1.137-6.169-0.077-10.746-3.73-15.632c-40.712-54.44-54.85-116.908-52.049-183.335c0.984-23.34,7.608-46.627,13.325-69.522
			c4.459-17.854,11.225-35.161,17.501-52.518c3.484-9.635,8.833-18.624,11.981-28.345c5.539-17.103,10.034-34.545,14.967-51.844
			c2.401-8.418,4.826-16.828,7.198-25.254C315.486,661.656,314.67,658.268,307.456,658.604z M456.176,805.682
			c9.245-0.36,18.491-1.057,27.733-0.995c11.824,0.08,23.985-0.85,35.392,1.549c21.339,4.489,31.621-8.753,42.852-22.545
			c14.804-18.182,32.823-32.828,54.984-40.936c9.386-3.435,19.761-7.762,31.339-2.919c-3.685,7.966-10.503,7.34-16.042,8.932
			c-6.861,1.971-14.217,2.771-20.613,5.704c-17.588,8.065-31.551,20.888-44.069,35.501c-7.9,9.222-13.998,20.265-26.561,24.875
			c-13.621,4.997-15.31,7.832-9.497,21.593c5.765,13.65,13.958,26.255,20.58,39.569c5.934,11.932,11.726,23.997,16.492,36.421
			c2.28,5.943,2.734,13.115-7.103,17.175c0.494-21.108-6.948-38.216-20.366-54.253c-10.02,10.351-21.777,18.466-27.995,29.658
			c-20.487,36.87-8.017,78.503,21.461,101.075c11.623,8.9,25.125,14.015,40.494,11.053c4.517-0.87,9.191-0.956,13.8-1.305
			c28.198-2.134,54.012-11.865,78.792-24.812c2.568-1.342,4.768-3.387,7.139-5.106c-7.567-2.724-14.523-2.891-21.478-2.829
			c-18.476,0.163-37.134,1.975-54.794-5.545c-6.302-2.684-12.979-5.277-15.183-14.852c3.61,0.261,6.342-0.327,8.139,0.708
			c20.235,11.661,42.459,11.211,64.582,10.49c11.203-0.365,22.434-1.835,33.505-3.682c8.415-1.404,12.009-8.059,14.592-15.764
			c-2.012-0.286-3.174-0.843-3.946-0.505c-42.708,18.667-81.465,4.084-119.781-14.171c-4.516-2.151-8.247-4.799-4.013-11.641
			c10.61,4.366,21.419,8.785,32.205,13.259c26.386,10.945,53.223,14.959,81.27,6.548c22.4-6.717,25.856-10.092,25.681-33.139
			c-0.073-9.626-1.699-19.498-4.285-28.795c-6.616-23.776-13.931-47.367-21.424-70.886c-5.413-16.991-11.56-33.75-17.438-50.782
			c-0.684-0.119-1.756-0.62-2.673-0.418c-29.806,6.583-58.577,15.694-83.698,33.915c-4.214,3.056-8.29,7.86-16.044,3.907
			c2.405-3.318,3.801-6.919,6.425-8.576c11.723-7.405,23.228-15.578,35.874-20.997c19.19-8.224,39.26-14.394,60.308-21.92
			c-0.271-8.622-0.576-18.338-0.884-28.053c-0.114-3.589-0.9-7.303-0.248-10.745c4.002-21.125,8.905-42.094,12.418-63.295
			c5.896-35.591,11.442-71.178,26.214-104.545c5.411-12.221,9.736-24.926,15.249-37.097c3.036-6.702,7.073-13.392,18.454-12.151
			c-5.46,7.757-9.996,14.199-15.279,21.704c8.21,6.289,15.188,12.211,22.729,17.296c17.883,12.059,35.63,24.416,54.269,35.208
			c7.68,4.447,17.539,7.289,26.356,7.165c17.936-0.252,36.085-1.7,53.696-5.038c30.032-5.693,57.96-17.747,84.437-32.95
			c5.752-3.303,11.203-7.365,16.149-11.796c25.804-23.122,26.685-29.442,9.649-60.5c-19.474-35.503-44.513-66.538-74.61-93.573
			c-5.536-4.973-10.741-10.314-16.798-16.159c8.201-4.753,12.879,0.436,16.863,4.21c11.914,11.285,23.624,22.835,34.742,34.899
			c23.812,25.84,45.249,53.311,56.507,87.352c0.966,2.921,3.173,5.432,6.636,11.17c1.051-6.326,2.626-9.497,1.786-11.781
			c-5.137-13.973-9.356-28.573-16.615-41.419c-17.295-30.605-40.161-57.189-64.162-82.755c-3.259-3.471-6.546-6.915-9.819-10.372
			c0.731-0.875,1.461-1.75,2.192-2.625c2.591,0.96,5.817,1.24,7.679,2.98c38.236,35.717,71.522,75.037,88.853,127.596
			c12.438-13.74,20.316-27.234,25.927-42.133c0.714-1.895,1.948-4.701,1.154-5.883c-6.364-9.47-0.27-17.422,3.345-25.547
			c-18.689-5.973-22.082-8.431-21.767-23.118c-6.773-4.819-12.628-8.985-19.788-14.08c-1.569,0.021-5.172,0.337-8.732,0.071
			c-18.32-1.37-23.182-6.489-19.483-24.435c2.452-11.893,7.808-23.238,12.508-34.561c0.668-1.609,4.988-1.702,8.75-2.839
			c-1.42,17.84-18.997,30.934-10.409,48.908c8.994,3.949,14.56,1.399,19.786-6.388c4.589-6.838,6.788-13.546,6.582-21.567
			c-0.178-6.91,1.465-12.881,12.178-13.704c-2.004,9.705-3.2,18.267-5.622,26.467c-2.575,8.717-8.071,17.099-0.016,25.643
			c12.437-3.406,17.202-7.18,24.315-19.152c2.744-4.618,4.646-10.482,13.253-8.281c-5.51,17.86-23.895,29.607-21.862,49.865
			c12.918,10.588,24.415-8.607,39.162-1.103c-12.416,8.772-22.341,17.801-24.563,32.097c10.954,5.691,14.364,5.445,20.42-3.651
			c10.191-15.306,15.568-32.356,15.344-50.845c-0.372-30.791-16.241-53.308-38.838-72.333c-22.692-19.105-43.664-21.139-69.59-7.012
			c-5.827,3.175-8.174,7.05-8.542,13.249c-0.426,7.17-0.456,14.57-2.341,21.407c-4.777,17.328-18.729,20.11-32.102,6.87
			c1.335-5.523,4.785-4.839,9.403-4.166c10.952,1.597,11.997,0.496,15.569-9.683c3.645-10.388,2.542-20.046-3.183-29.008
			c-15.266-0.44-19.318,2.165-24.33,14.178c-2.339,5.608-4.188,12.177-8.331,16.148c-21.519,20.627-42.257,42.27-67.664,58.378
			c-6.045,3.833-12.505,7.118-19.054,10.023c-8.797,3.902-16.845,2.565-24.131-4.248c-5.628-5.263-11.649-10.184-17.913-14.674
			c-13.586-9.739-27.44-19.105-41.184-28.623c-1.134,0.626-2.267,1.252-3.401,1.877c0.346,3.613,0.615,7.236,1.051,10.838
			c2.281,18.844,4.767,37.667,6.718,56.545c0.264,2.556-2.089,5.383-3.231,8.084c-1.236-0.172-2.472-0.344-3.708-0.516
			c-1.522-15.879-3.043-31.759-4.565-47.639c-1.23,0.144-2.459,0.288-3.689,0.433c0.355,3.701,0.432,7.454,1.107,11.096
			c5.861,31.619,2.253,62.493-7.386,92.839c-0.756,2.38-3.51,4.125-5.335,6.165c-0.99-0.324-1.979-0.648-2.969-0.972
			c0.163-2.966-0.483-6.279,0.616-8.844c10.887-25.419,11.991-51.892,8.858-78.823c-0.299-2.568-2.143-4.957-4.449-10.013
			c-2.509,5.632-4.371,8.569-5.145,11.769c-2.894,11.97-3.957,24.6-8.366,35.949c-16.655,42.866-50.954,67.864-93.255,78.121
			c-52.258,12.671-104.516,6.841-153.188-18.038c-17.31-8.848-34.871-18.249-49.79-30.481
			c-20.529-16.831-34.148-39.639-43.097-64.746c-1.938-5.438-1.386-11.752-2.059-17.654c-1.336-11.711-0.135-24.6-4.794-34.805
			c-5.053-11.068-6.693-22.474-9.957-33.689c-1.115-3.828-2.291-7.639-3.388-11.287c-13.92,1.585-19.047,4.322-30.952,16.29
			c24.903,27.687,36.12,60.422,35.202,97.587c-0.228,9.252,1.358,18.581,0.74,27.782c-0.577,8.596-2.52,17.193-4.764,25.547
			c-1.08,4.021-4.365,7.167-9.43,4.062c17.894-58.792-2.83-133.112-32.751-150.981c7.273,16.274,16.061,32.061,21.486,48.93
			c9.712,30.199,9.973,43.717,3.083,55.819c-1.584-7.044-2.975-11.617-3.603-16.293c-3.246-24.178-9.094-47.422-21.501-68.818
			c-8.907-15.361-11.662-17.333-29.454-14.299c-11.134,1.899-22.114,4.708-33.254,6.56c-33.614,5.588-64.026,18.628-91.374,38.823
			c-5.898,4.356-11.273,9.42-17.353,14.55c2.803,1.877,3.965,2.951,5.336,3.53c39.463,16.681,71.391,42.697,95.669,77.914
			c5.21,7.557,9.278,15.983,13.092,24.365c0.977,2.148-1.02,5.649-2.049,10.346c-2.85-3.024-4.215-3.899-4.763-5.136
			c-14.43-32.562-38.166-57.28-66.924-77.165c-12.163-8.41-25.762-15.154-39.479-20.774c-10.684-4.377-18.866-4.296-23.274,8.796
			c9.807,2.319,20.323,3.073,29.266,7.219c38.868,18.023,69.254,45.76,90.499,83.151c2.476,4.358,4.111,9.225-1.723,14.352
			c-28.064-50.858-65.282-88.434-126.65-95.036c-3.632,6.861-7.921,12.374-9.588,18.59c-5.432,20.265-11.89,40.557-14.281,61.263
			c-3.529,30.558-4.72,61.465-5.282,92.254c-0.294,16.134-0.134,32.662,3.59,49.956c14.014-3.876,26.359-7.243,38.674-10.714
			c8.844-2.493,17.532-6.695,26.496-7.358c16.865-1.248,33.882-0.684,50.828-0.386c3.067,0.054,6.093,2.443,8.963,3.679
			c-1.319,6.832-5.481,6.677-9.699,6.459c-7.176-0.37-14.387-1.334-21.524-0.95c-15.36,0.827-30.873,1.272-45.959,3.935
			c-12,2.118-23.467,7.272-35.155,11.128c-3.793,1.252-7.534,2.663-11.428,4.048c-1.436,20.241,4.736,38.301,9.472,56.667
			c1.617,6.268,2.297,13.112,1.695,19.533c-0.747,7.965,1.344,13.835,6.969,18.487c5.549-1.872,10.226-3.45,14.174-4.781
			c1.486,1.12,2.074,1.341,2.278,1.753c1.355,2.733,2.704,5.475,3.915,8.274c5.413,12.508,7.241,13.048,19.311,5.512
			c3.849-2.404,7.671-4.85,11.654-7.37c6.842,8.389,13.246,16.239,19.285,23.644c23.632-7.486,25.207-9.812,22.668-31.869
			c-0.353-3.064-1.464-6.263-0.9-9.14c0.448-2.283,2.923-4.169,6.527-8.887c1.323,6.993,1.914,10.781,2.768,14.509
			c2.967,12.958,5.354,26.104,9.287,38.766c2.591,8.343,7.525,9.985,15.799,8.098c8.779-2.002,12.66-6.678,11.733-15.152
			c-0.441-4.026-2.496-7.863-3.04-11.891c-1.218-9.017-2.825-18.118-2.641-27.152c0.206-10.157,3.008-20.259,3.234-30.418
			c0.306-13.74,3.447-17.459,16.835-17.576c6.312-0.055,12.616-1.115,17.826-1.614c1.159-2.268,1.551-2.709,1.605-3.188
			c2.201-19.542-13.146-25.345-26.192-31.881c-15.04-7.535-15.363-6.801-15.363-22.839c0-1.947-0.785-3.894-1.131-5.494
			c-36.88-13.825-72.508-13.391-109.127,0.722c-8.733,3.366-17.808,5.842-26.726,8.727c-0.601-1.077-1.202-2.153-1.803-3.23
			c2.674-2.68,4.875-6.34,8.093-7.892c42.093-20.306,85.656-23.711,130.821-8.687c0.969-5.255,1.601-8.731,2.252-12.203
			c4.158-22.198,7.383-44.624,12.72-66.534c6.615-27.154,19.121-36.853,46.48-39.156c13.83-1.164,27.665-2.323,41.52-3.089
			c4.125-0.228,8.324,0.887,12.489,1.387c0.195,1.244,0.389,2.488,0.584,3.732c-2.772,1.367-5.417,3.266-8.349,3.968
			c-3.834,0.919-7.895,0.891-12.496,1.332c-1.29,8.1-2.81,15.12-3.46,22.22c-1.731,18.923-3.521,37.858-4.505,56.829
			c-2.167,41.788-9.53,82.53-23.122,122.044c19.392,15.127,38.942,30.005,58.072,45.405c19.592,15.771,36.1,34.041,45.104,58.253
			c-6.794,2.913-8.146-1.359-10.445-4.815c-6.834-10.273-12.517-21.883-21.294-30.171c-17.531-16.556-36.657-31.455-55.498-46.572
			c-4.976-3.993-11.316-6.286-16.606-9.131c-9.166,23.325-17.667,45.195-26.348,66.993c-15.092,37.895-24.287,77.423-32.403,117.228
			c-1.668,8.184-1.556,16.231,6.866,21.956c3.312,2.252,8.041,5.702,3.377,11.746c-3.13-0.732-6.396-1.496-11.893-2.782
			c1.243,12.97,1.441,24.848,3.694,36.323c3.664,18.661,7.848,37.306,13.305,55.51c8.342,27.827,20.629,53.897,40.825,75.356
			c9.18,9.754,19.233,18.654,32.499,22.87c19.933,6.334,37.774,0.66,47.653-17.571c5.248-9.685,9.436-21.044,10.108-31.895
			c1.78-28.743,1.44-57.619,1.78-86.444c0.04-3.426-0.934-6.863-1.676-11.914c-20.407,11.308-41.84,9.342-62.718,9.261
			c-18.702-0.072-36.405-6.292-52.875-15.293c-4.184-2.287-8.899-4.906-7.155-11.523c10.234,3.743,19.636,7.626,29.31,10.636
			c26.714,8.314,53.819,7.725,80.842,1.924c8.395-1.802,14.276-6.617,15.228-16.787c0.904-9.652,4.654-19.001,6.236-28.634
			c4.239-25.805,16.809-47.302,33.606-66.657c6.206-7.151,14.31-13.261,8.203-24.559c-0.785-1.452,0.394-3.967,0.664-5.99
			L456.176,805.682z M540.4,192.79c-17.083,3.566-34.409,6.275-51.163,11.009c-10.68,3.018-20.955,8.27-30.633,13.866
			c-21.135,12.22-33.426,31.992-41.097,54.266c-4.594,13.339-8.713,27.954-1.941,41.886c18.256,37.56,41.435,71.106,78.959,92.288
			c5.789,3.268,11.102,7.684,17.229,9.996c24.707,9.323,50.355,14.25,76.816,14.813c43.294,0.922,79.503-14.386,107.263-47.82
			c12.65-15.235,23.3-32.972,24.291-52.608c1.991-39.448-11.662-72.899-47.134-94.255c-11.809-7.11-24.74-12.347-36.617-19.357
			C606.758,199.394,575.558,189.418,540.4,192.79z M371.594,273.933c2.384-11.757,3.295-21.103,6.375-29.67
			c1.93-5.369,6.187-11.642,11.055-13.832c8.771-3.947,12.199-10.29,14.309-18.62c6.131-24.208,19.668-43.973,37.248-61.225
			c23.264-22.829,51.237-37.201,83.566-39.067c35.338-2.04,70.685-0.726,104.854,11.977c20.983,7.801,40.124,18.808,58.042,31.341
			c12.811,8.961,23.128,21.992,33.014,34.434c5.516,6.943,8.914,16.094,11.422,24.782c3.989,13.814,6.062,28.171,9.75,42.086
			c1.197,4.515,3.93,10.036,7.649,12.223c15.545,9.137,18.645,23.978,19.343,39.704c0.701,15.81,0.431,16.217,17.524,20.337
			c1.344-8.618,2.972-17.079,3.938-25.616c3.357-29.656,7.383-59.318,1.576-89.149c-3.188-16.374-7.616-32.545-20.346-44.075
			c-21.854-19.796-45.163-37.09-75.194-43.548c-37.65-8.098-75.031-17.476-112.445-26.638
			c-49.735-12.179-100.217-17.223-151.34-17.221c-33.224,0.001-59.064,14.525-76.31,41.768
			c-14.62,23.096-23.812,49.035-27.27,76.545c-2.246,17.87-4.713,35.726-6.336,53.656c-1.283,14.172-1.433,28.446-2.165,44.376
			C340.867,293.722,355.33,280.603,371.594,273.933z M399.089,335.383c0.383,27.932,9.504,52.601,24.349,75.302
			c18.572,28.401,45.451,48.238,75.153,62.127c50.205,23.476,103.541,27.477,155.816,7.76
			c44.613-16.827,70.514-50.879,76.898-102.181c-6.423,2.312-11.345,3.039-14.933,5.62c-5.359,3.855-10.014,8.795-14.56,13.656
			c-33.972,36.327-76.616,47.297-124.688,43.656c-20.615-1.561-40.714-4.612-59.735-13.002c-6.978-3.078-14.201-5.83-20.667-9.784
			c-7.87-4.813-14.855-11.05-22.583-16.121c-20.675-13.567-36.725-31.64-48.212-53.083
			C419.78,337.858,412.13,334.152,399.089,335.383z M407.708,263.078c1.863-3.381,3.486-6.923,5.635-10.111
			c6.298-9.345,11.508-19.889,19.455-27.573c32.906-31.813,71.989-48.462,118.575-44.919c7.454,0.567,14.994,0.016,23.027-0.02
			c1.277-10.516,2.394-19.711,3.511-28.907c1.149,0.06,2.298,0.12,3.447,0.18c0.977,10.194,1.953,20.387,2.95,30.783
			c14.512,4.484,28.536,7.928,41.847,13.179c13.326,5.258,26.61,11.261,38.681,18.887c12.503,7.898,24.602,17.091,34.885,27.657
			c9.597,9.861,16.579,22.266,25.673,34.884c2.739-71.79-54.275-131.978-138.962-150.975c-1.726,4.003-3.468,8.04-6.322,14.657
			c-2.236-7.907-3.579-12.655-4.962-17.545c-38.871-5.352-74.305,3.261-107.338,21.805c-20.507,11.512-37.957,26.476-44.651,50.735
			c-1.33,4.821-4.914,8.997-7.293,13.557C407.149,226.06,404.996,243.932,407.708,263.078z M684.497,706.498
			c17.295,1.411,20.494,0.03,25.138-12.876c5.045-14.016,9.921-28.168,13.594-42.587c6.982-27.415,12.86-55.11,19.564-82.599
			c5.963-24.454,6.189-24.411-15.163-38.487c-0.682-0.449-1.84-0.175-3.468-0.285c-1.552,2.834-3.789,5.77-4.875,9.083
			c-7.042,21.485-15.367,42.707-20.315,64.682c-6.09,27.049-9.467,54.721-13.629,82.182
			C684.299,692.5,684.737,699.615,684.497,706.498z M318.326,646.88c16.032-53.519,14.904-107.948,19.261-163.261
			c-9.894-0.213-18.271-0.393-28.402-0.611c-4.163,30.469-8.442,59.831-12.091,89.272c-2.017,16.27-2.998,32.669-4.409,49.012
			C291.291,637.429,299.067,645.614,318.326,646.88z M696.395,114.847c0.851-12.591-7.523-14.982-14.161-16.746
			c-22.738-6.041-45.645-11.561-68.688-16.308c-20.598-4.243-41.464-7.184-62.206-10.729c-17.688-3.023-35.396-5.945-53.043-9.193
			c-8.795-1.619-8.987,3.434-8.81,10.052c23.316,3.514,46.382,5.821,68.901,10.669c31.046,6.683,61.625,15.504,92.511,22.968
			C665.621,109.118,680.589,111.656,696.395,114.847z M297.118,484.788c-5.504,5.422-10.902,8.843-13.52,13.747
			c-4.312,8.079-8.27,16.868-9.823,25.801c-4.386,25.234-7.94,50.639-10.911,76.084c-1.994,17.08-0.336,18.403,18.709,23.732
			c5.888-43.687,11.791-87.297,17.552-130.925C299.365,491.409,298.267,489.415,297.118,484.788z M742.953,278.381
			c0.365,31.129-6.133,60.508-15.804,90.531c9.287,0.099,14.928-1.992,18.724-8.532c11.526-19.859,13.835-41.547,11.682-63.728
			C756.856,289.451,754.318,281.473,742.953,278.381z M396.373,237.642c-11.241,8.37-14.21,16.923-13.533,25.453
			c1.329,16.72,3.605,33.472,7.065,49.878c2.344,11.111,5.883,12.008,19.97,9.194C394.186,296.863,393.436,268.958,396.373,237.642z
			 M511.517,1001.878c0.855,8.926,1.288,15.339,2.13,21.698c0.867,6.552,1.05,13.519,3.598,19.411
			c1.74,4.024,6.69,8.309,10.837,9.082c2.921,0.544,7.72-4.005,10.235-7.363c4.554-6.081,7.601-13.073,6.204-19.05
			C533.538,1017.744,524.16,1010.987,511.517,1001.878z M350.325,1114.437c-12.392-6.581-22.199-11.789-33.21-17.637
			c-1.797,6.407-3.844,12.546-5.186,18.836c-1.168,5.473-2.266,11.302,4.292,14.739c5.941,3.114,11.874,3.375,17.207-0.905
			C338.856,1125.113,343.863,1120.229,350.325,1114.437z"/>
		<path fill="#FFFFFF" d="M1060.913,288.398c-22.692-19.105-43.664-21.139-69.59-7.013c-5.827,3.175-8.174,7.05-8.542,13.249
			c-0.426,7.17-0.456,14.57-2.341,21.407c-4.777,17.329-18.729,20.11-32.102,6.87c1.335-5.523,4.785-4.839,9.403-4.166
			c10.952,1.597,11.997,0.496,15.569-9.683c3.645-10.388,2.542-20.046-3.183-29.008c-15.266-0.44-19.318,2.165-24.33,14.178
			c-2.339,5.608-4.188,12.177-8.331,16.148c-21.519,20.627-42.257,42.27-67.664,58.378c-6.045,3.833-12.505,7.118-19.054,10.023
			c-8.797,3.902-16.845,2.565-24.131-4.248c-5.628-5.263-11.649-10.184-17.913-14.674c-13.586-9.739-27.44-19.105-41.184-28.623
			c-1.134,0.626-2.268,1.252-3.401,1.877c0.346,3.613,0.616,7.236,1.052,10.838c2.281,18.844,4.767,37.667,6.718,56.545
			c0.264,2.556-2.089,5.383-3.231,8.084c-1.236-0.172-2.472-0.344-3.708-0.516c-1.522-15.879-3.043-31.759-4.565-47.638
			c-1.23,0.144-2.459,0.288-3.689,0.433c0.355,3.701,0.432,7.454,1.107,11.096c5.861,31.619,2.253,62.493-7.386,92.839
			c-0.756,2.38-3.51,4.125-5.335,6.165c-0.99-0.324-1.979-0.648-2.969-0.972c0.163-2.966-0.483-6.279,0.616-8.844
			c10.887-25.419,11.991-51.892,8.858-78.823c-0.299-2.568-2.143-4.957-4.448-10.013c-2.509,5.632-4.371,8.569-5.145,11.769
			c-2.894,11.97-3.957,24.6-8.366,35.949c-16.655,42.866-50.954,67.864-93.255,78.121c-52.258,12.671-104.516,6.841-153.188-18.038
			c-17.31-8.848-34.871-18.249-49.79-30.481c-20.529-16.831-34.148-39.639-43.097-64.746c-1.938-5.438-1.386-11.752-2.059-17.654
			c-1.336-11.712-0.135-24.6-4.794-34.805c-5.053-11.068-6.693-22.474-9.957-33.689c-1.115-3.828-2.291-7.639-3.388-11.287
			c-13.92,1.585-19.047,4.323-30.952,16.29c24.903,27.687,36.12,60.422,35.203,97.587c-0.229,9.252,1.358,18.581,0.74,27.782
			c-0.577,8.596-2.52,17.193-4.764,25.547c-1.08,4.021-4.365,7.167-9.43,4.061c17.894-58.792-2.83-133.112-32.754-150.979
			c7.276,16.273,16.064,32.06,21.489,48.928c9.712,30.199,9.973,43.717,3.083,55.819c-1.584-7.044-2.975-11.617-3.603-16.294
			c-3.246-24.178-9.094-47.422-21.501-68.818c-8.907-15.361-11.662-17.333-29.454-14.299c-11.134,1.899-22.114,4.708-33.254,6.56
			c-33.614,5.587-64.026,18.628-91.374,38.823c-5.898,4.356-11.273,9.42-17.353,14.549c2.803,1.878,3.965,2.951,5.336,3.53
			c39.463,16.681,71.391,42.697,95.669,77.914c5.21,7.557,9.278,15.984,13.092,24.365c0.977,2.148-1.02,5.649-2.05,10.346
			c-2.85-3.024-4.215-3.899-4.763-5.136c-14.43-32.562-38.166-57.28-66.924-77.165c-12.163-8.41-25.762-15.154-39.479-20.774
			c-10.684-4.377-18.866-4.296-23.274,8.796c9.807,2.319,20.323,3.073,29.266,7.219c38.868,18.023,69.254,45.76,90.499,83.151
			c2.476,4.358,4.111,9.225-1.722,14.352c-28.064-50.858-65.282-88.433-126.65-95.036c-3.632,6.861-7.921,12.374-9.588,18.59
			c-5.432,20.265-11.89,40.557-14.281,61.263c-3.529,30.558-4.72,61.465-5.282,92.254c-0.294,16.134-0.134,32.662,3.59,49.956
			c14.014-3.877,26.359-7.243,38.675-10.714c8.844-2.493,17.532-6.695,26.496-7.358c16.865-1.248,33.882-0.685,50.827-0.386
			c3.067,0.054,6.093,2.443,8.963,3.679c-1.319,6.832-5.481,6.677-9.699,6.459c-7.176-0.37-14.387-1.334-21.524-0.95
			c-15.36,0.827-30.872,1.272-45.959,3.935c-12,2.118-23.467,7.272-35.155,11.128c-3.793,1.252-7.534,2.663-11.428,4.048
			c-1.436,20.241,4.736,38.301,9.472,56.667c1.617,6.268,2.296,13.113,1.695,19.533c-0.747,7.965,1.344,13.835,6.969,18.487
			c5.549-1.872,10.226-3.45,14.174-4.781c1.486,1.12,2.074,1.341,2.278,1.753c1.355,2.733,2.704,5.474,3.915,8.274
			c5.413,12.508,7.241,13.048,19.311,5.512c3.849-2.404,7.671-4.85,11.654-7.37c6.842,8.389,13.246,16.239,19.285,23.644
			c23.632-7.486,25.207-9.812,22.668-31.869c-0.353-3.064-1.464-6.263-0.9-9.139c0.448-2.284,2.923-4.169,6.527-8.887
			c1.323,6.993,1.914,10.781,2.768,14.509c2.967,12.958,5.354,26.104,9.287,38.766c2.591,8.343,7.525,9.985,15.799,8.098
			c8.778-2.003,12.66-6.678,11.733-15.152c-0.441-4.025-2.496-7.863-3.04-11.891c-1.218-9.017-2.825-18.118-2.642-27.152
			c0.207-10.157,3.008-20.259,3.234-30.418c0.306-13.74,3.447-17.459,16.835-17.576c6.312-0.055,12.616-1.115,17.826-1.614
			c1.159-2.268,1.551-2.709,1.605-3.188c2.201-19.541-13.146-25.345-26.192-31.881c-15.04-7.536-15.363-6.801-15.363-22.839
			c0-1.947-0.785-3.894-1.131-5.494c-36.88-13.825-72.508-13.391-109.127,0.722c-8.733,3.366-17.808,5.842-26.726,8.727
			c-0.601-1.077-1.202-2.153-1.803-3.23c2.674-2.68,4.875-6.34,8.093-7.892c42.093-20.306,85.656-23.711,130.821-8.687
			c0.969-5.255,1.602-8.731,2.252-12.203c4.158-22.198,7.383-44.624,12.72-66.535c6.615-27.154,19.121-36.853,46.48-39.156
			c13.83-1.164,27.665-2.323,41.52-3.089c4.125-0.228,8.324,0.887,12.489,1.387c0.195,1.244,0.389,2.488,0.584,3.732
			c-2.772,1.367-5.417,3.266-8.349,3.968c-3.834,0.919-7.895,0.892-12.496,1.332c-1.289,8.1-2.81,15.12-3.46,22.22
			c-1.731,18.923-3.521,37.858-4.505,56.829c-2.167,41.788-9.53,82.53-23.122,122.045c19.392,15.127,38.942,30.005,58.072,45.405
			c19.592,15.771,36.1,34.041,45.104,58.253c-6.794,2.913-8.146-1.358-10.445-4.815c-6.834-10.273-12.517-21.883-21.294-30.171
			c-17.531-16.556-36.657-31.455-55.498-46.572c-4.976-3.993-11.316-6.286-16.606-9.131c-9.167,23.325-17.667,45.195-26.348,66.993
			c-15.092,37.895-24.287,77.423-32.404,117.228c-1.669,8.184-1.556,16.231,6.866,21.956c3.312,2.252,8.041,5.702,3.377,11.746
			c-3.13-0.732-6.396-1.496-11.893-2.782c1.243,12.97,1.441,24.848,3.694,36.323c3.664,18.661,7.848,37.306,13.305,55.51
			c8.342,27.827,20.629,53.897,40.825,75.355c9.18,9.754,19.233,18.655,32.499,22.87c19.933,6.334,37.774,0.66,47.653-17.571
			c5.248-9.684,9.435-21.044,10.108-31.895c1.78-28.742,1.44-57.619,1.78-86.444c0.041-3.426-0.934-6.863-1.676-11.914
			c-20.407,11.308-41.84,9.342-62.718,9.261c-18.702-0.072-36.405-6.292-52.875-15.293c-4.184-2.287-8.898-4.906-7.155-11.523
			c10.234,3.743,19.636,7.626,29.31,10.636c26.714,8.314,53.819,7.725,80.842,1.924c8.395-1.802,14.276-6.617,15.228-16.787
			c0.904-9.652,4.654-19.002,6.236-28.634c4.239-25.805,16.809-47.302,33.606-66.657c6.206-7.151,14.31-13.261,8.203-24.559
			c-0.488-0.903-0.217-2.216,0.123-3.566c-0.267-0.535-0.507-1.078-0.704-1.634c-4.983,2.804-6.842-1.267-9.013-5.268
			c-7.083-13.054-14.224-26.079-21.54-39.003c-14.749-26.053-36.813-45.138-60.726-62.149
			c-15.509-11.033-17.306-11.88-23.247-24.361c12.731,6.252,23.366,11.443,32.993,18.555c29.351,21.682,52.679,48.748,70.094,80.689
			c4.574,8.389,7.479,17.689,10.811,26.753c0.047-0.527,0.128-1.066,0.256-1.621c-0.128,0.555-0.209,1.094-0.256,1.621
			c0.515,1.401,1.04,2.798,1.584,4.183c0.098-0.067,0.189-0.117,0.29-0.189c-0.014,0.106-0.039,0.218-0.058,0.326
			c9.186-0.365,18.374-1.052,27.557-0.99c11.824,0.08,23.985-0.85,35.392,1.549c21.339,4.488,31.621-8.753,42.852-22.545
			c14.804-18.182,32.824-32.828,54.984-40.936c9.386-3.435,19.761-7.762,31.339-2.919c-3.685,7.966-10.503,7.34-16.042,8.932
			c-6.861,1.971-14.217,2.771-20.613,5.704c-17.588,8.065-31.55,20.888-44.069,35.501c-7.901,9.222-13.998,20.266-26.561,24.875
			c-13.621,4.997-15.31,7.832-9.497,21.593c5.765,13.65,13.958,26.254,20.58,39.569c5.934,11.932,11.726,23.997,16.492,36.421
			c2.28,5.943,2.734,13.116-7.103,17.175c0.494-21.108-6.948-38.216-20.366-54.253c-10.02,10.351-21.777,18.466-27.995,29.658
			c-20.487,36.87-8.017,78.503,21.461,101.075c11.623,8.9,25.125,14.015,40.494,11.053c4.517-0.87,9.191-0.956,13.8-1.305
			c28.198-2.134,54.012-11.864,78.792-24.812c2.568-1.342,4.768-3.387,7.139-5.106c-7.568-2.724-14.523-2.891-21.478-2.829
			c-18.477,0.163-37.135,1.975-54.794-5.545c-6.302-2.684-12.979-5.277-15.182-14.852c3.61,0.261,6.342-0.327,8.139,0.708
			c20.235,11.661,42.459,11.211,64.582,10.49c11.203-0.365,22.434-1.835,33.506-3.682c8.415-1.404,12.009-8.059,14.591-15.764
			c-2.012-0.286-3.174-0.843-3.946-0.505c-42.708,18.667-81.465,4.084-119.781-14.172c-4.516-2.151-8.247-4.799-4.013-11.641
			c10.61,4.367,21.419,8.785,32.205,13.259c26.386,10.945,53.223,14.959,81.27,6.548c22.4-6.717,25.856-10.092,25.681-33.139
			c-0.073-9.626-1.699-19.498-4.285-28.795c-6.616-23.776-13.931-47.367-21.424-70.886c-5.413-16.991-11.56-33.75-17.438-50.782
			c-0.684-0.118-1.756-0.62-2.673-0.418c-29.806,6.583-58.578,15.694-83.698,33.914c-4.214,3.056-8.29,7.86-16.044,3.907
			c2.405-3.318,3.801-6.919,6.425-8.576c11.723-7.405,23.228-15.578,35.874-20.997c19.19-8.224,39.26-14.394,60.308-21.92
			c-0.271-8.622-0.576-18.338-0.884-28.053c-0.114-3.589-0.9-7.303-0.248-10.745c4.002-21.125,8.905-42.094,12.418-63.295
			c5.896-35.592,11.442-71.178,26.214-104.545c5.411-12.221,9.736-24.927,15.249-37.097c3.036-6.702,7.073-13.392,18.454-12.151
			c-5.46,7.757-9.996,14.199-15.279,21.704c8.21,6.289,15.188,12.211,22.729,17.296c17.883,12.059,35.63,24.416,54.269,35.208
			c7.68,4.447,17.539,7.289,26.356,7.165c17.936-0.252,36.085-1.7,53.695-5.038c30.032-5.693,57.961-17.747,84.437-32.95
			c5.752-3.303,11.203-7.365,16.149-11.796c25.804-23.122,26.685-29.442,9.649-60.5c-19.474-35.503-44.513-66.538-74.61-93.573
			c-5.536-4.973-10.741-10.314-16.798-16.159c8.201-4.753,12.879,0.436,16.863,4.21c11.914,11.285,23.624,22.834,34.742,34.899
			c23.812,25.84,45.249,53.311,56.507,87.352c0.966,2.921,3.173,5.432,6.636,11.17c1.051-6.326,2.626-9.497,1.786-11.781
			c-5.137-13.973-9.356-28.573-16.615-41.419c-17.295-30.605-40.161-57.189-64.162-82.755c-3.259-3.471-6.546-6.915-9.82-10.372
			c0.731-0.875,1.461-1.75,2.192-2.625c2.591,0.96,5.817,1.24,7.679,2.98c38.236,35.717,71.522,75.037,88.853,127.596
			c12.438-13.74,20.316-27.234,25.927-42.133c0.714-1.895,1.948-4.701,1.154-5.883c-6.364-9.47-0.27-17.421,3.344-25.547
			c-18.689-5.973-22.082-8.431-21.767-23.118c-6.773-4.819-12.628-8.985-19.788-14.08c-1.569,0.021-5.172,0.337-8.732,0.071
			c-18.32-1.37-23.182-6.489-19.483-24.435c2.452-11.893,7.808-23.238,12.508-34.561c0.668-1.609,4.988-1.702,8.75-2.839
			c-1.42,17.84-18.997,30.934-10.409,48.908c8.994,3.949,14.56,1.399,19.786-6.388c4.589-6.838,6.788-13.546,6.582-21.567
			c-0.178-6.91,1.465-12.881,12.178-13.704c-2.004,9.705-3.2,18.267-5.622,26.467c-2.575,8.717-8.071,17.099-0.016,25.643
			c12.437-3.406,17.202-7.18,24.315-19.152c2.744-4.618,4.646-10.482,13.253-8.281c-5.51,17.86-23.895,29.607-21.862,49.865
			c12.918,10.588,24.415-8.607,39.162-1.103c-12.416,8.772-22.34,17.801-24.563,32.097c10.954,5.691,14.364,5.444,20.42-3.651
			c10.191-15.306,15.568-32.356,15.344-50.845C1099.378,329.941,1083.51,307.423,1060.913,288.398z M388.137,933.364
			c-17.522,6.408-35.08,10.714-54.186,5.609c-16.911-4.519-33.426-8.947-46.152-21.72c0.379-1.325,0.758-2.65,1.137-3.976
			c4.099,1.149,8.494,1.696,12.249,3.543c30.133,14.821,60.647,18.636,92.089,4.174c1.184-0.545,2.913,0.094,4.495,0.188
			C398.697,928.797,393.299,931.477,388.137,933.364z M626.237,660.475c-2.626,22.042-12.539,28.607-34.975,27.108
			c-32.75-2.189-65.568-3.789-98.197-7.178c-21.392-2.221-42.526-7.021-63.728-10.926c-13.315-2.453-21.088-10.178-20.968-24.311
			c0.127-14.873-0.933-29.94,1.083-44.57c2.87-20.826,7.829-41.384,12.365-61.953c2.939-13.327,7.014-17.273,21.1-17.933
			c17.422-0.816,34.979-0.995,52.366,0.185c30.727,2.083,61.388,5.223,92.044,8.253c30.432,3.008,38.108,10.658,41.885,40.659
			c0.321,2.551,0.501,5.12,0.746,7.68c0.754,0.038,1.508,0.076,2.262,0.114C630.337,605.24,629.51,633.003,626.237,660.475z
			 M814.07,541.768c15.968-23.876,18.787-50.108,23.332-75.753c4.59-25.899,0.557-51.708-4.299-78.029
			c8.703,0.561,9.111,5.386,9.875,9.833c7.883,45.885,0.543,90.149-14.633,133.475C826.498,536.572,824.927,543.689,814.07,541.768z
			 M855.261,486.44c-4.346,21.024-11.149,41.546-17.053,62.235c-0.967,3.389-2.32,7.105-4.675,9.516
			c-1.726,1.767-5.384,1.646-10.276,2.905c27.865-56.105,32.48-112.934,25.802-172.725c9.204,1.375,8.835,6.475,9.387,10.834
			C862.146,428.454,861.203,457.699,855.261,486.44z"/>
		<path fill="#9EDDEF" d="M187.322,710.939c-8.184-3.156-14.11,3.784-20.654,8.445c-4.099,2.919-9.672,1.977-12.838-1.934
			c-3.601-4.449-11.561-8.448-13.918-9.679c-24.52-12.8-25.731-52.648-16.176-77.973c-2.494,0.904-4.99,1.795-7.497,2.622
			c-3.793,1.252-7.534,2.663-11.428,4.048c-1.401,19.747,4.439,37.419,9.124,55.325c1.785,6.825,2.685,13.908,2.038,20.933
			c-0.731,7.936,1.362,13.789,6.975,18.43c5.549-1.872,10.226-3.45,14.174-4.781c1.486,1.12,2.074,1.341,2.278,1.753
			c1.355,2.733,2.704,5.474,3.915,8.274c5.413,12.508,7.241,13.048,19.311,5.512c3.849-2.404,7.671-4.85,11.654-7.37
			c6.842,8.389,13.246,16.239,19.285,23.644c23.632-7.486,25.207-9.812,22.668-31.869c-0.353-3.064-1.464-6.263-0.9-9.139
			c0.248-1.263,1.133-2.42,2.469-3.987c-0.158-0.648-0.281-1.35-0.356-2.126C206.368,721.159,200.401,721.731,187.322,710.939z"/>
		<path fill="#9EDDEF" d="M224.01,719.891c0.199,1.007,0.399,1.96,0.616,2.908c2.967,12.958,5.354,26.104,9.287,38.766
			c2.139,6.888,5.91,9.162,11.803,8.701c-3.872-15.247-3.806-30.872-11.922-45.712C231.895,721.519,227.693,721.271,224.01,719.891z
			"/>
		<path fill="#FFFFFF" d="M456.121,805.541c0.019,0.048,0.036,0.097,0.055,0.145c0.059-0.002,0.118-0.006,0.177-0.008
			c0.019-0.108,0.044-0.22,0.058-0.326C456.31,805.424,456.219,805.474,456.121,805.541z"/>
		<path fill="#FFFFFF" d="M456.121,805.541c-0.33,0.226-0.65,0.429-0.955,0.601c0.197,0.556,0.438,1.098,0.704,1.634
			c0.178-0.709,0.366-1.423,0.483-2.098c-0.059,0.002-0.118,0.006-0.177,0.008C456.157,805.638,456.14,805.589,456.121,805.541z"/>
		<path fill="#9EDDEF" d="M455.747,811.341c-0.488-0.903-0.217-2.216,0.123-3.566c-0.267-0.535-0.507-1.078-0.704-1.634
			c-4.983,2.804-6.842-1.267-9.013-5.268c-7.083-13.054-14.224-26.079-21.54-39.003c-14.749-26.053-36.813-45.138-60.726-62.149
			c-13.809-9.823-16.753-11.593-21.425-20.668c-6.187-4.961-12.197-10.131-19.143-13.285c-1.678,5.642-3.444,11.268-5.368,16.861
			c19.392,15.127,38.942,30.005,58.072,45.405c19.592,15.771,36.1,34.041,45.104,58.253c-0.743,0.319-1.396,0.518-2.017,0.675
			c11.667,16.578,20.12,33.662,25.512,52.384c0.96-1.156,1.932-2.305,2.922-3.446C453.75,828.749,461.854,822.639,455.747,811.341z"
			/>
		<path fill="#9EDDEF" d="M311.632,946.053c26.714,8.314,53.819,7.725,80.842,1.924c8.395-1.802,14.276-6.617,15.228-16.787
			c0.508-5.423,1.914-10.751,3.33-16.088c-4.168,2.502-8.639,4.519-13.258,6.301c0.788,7.432-4.529,10.092-9.637,11.961
			c-17.522,6.408-35.08,10.714-54.186,5.609c-16.911-4.519-33.426-8.947-46.152-21.72c0.159-0.555,0.317-1.109,0.476-1.664
			c-6.057-1.569-11.968-3.326-17.615-6.043c-0.178,1.185-0.749,2.501-1.885,3.973c-3.13-0.732-6.396-1.496-11.893-2.782
			c0.7,7.307,1.077,14.259,1.668,20.996c6.311,6.226,16.265,9.291,25.991,11.929c-2.015-1.871-3.243-4.359-2.219-8.245
			C292.556,939.161,301.958,943.043,311.632,946.053z"/>
		<path fill="#9EDDEF" d="M644.847,738.617c1.197,0.319,2.405,0.708,3.629,1.22c-3.685,7.966-10.503,7.34-16.042,8.932
			c-6.861,1.971-14.217,2.771-20.613,5.704c-17.588,8.065-31.55,20.888-44.069,35.501c-7.901,9.222-13.998,20.266-26.561,24.875
			c-13.621,4.997-15.31,7.832-9.497,21.593c5.765,13.65,13.958,26.254,20.58,39.569c5.91,11.884,11.677,23.901,16.432,36.272
			c9.171-20.947,6.152-44.981-4.046-65.862c-6.511-14.686-0.148-30.592,10.322-43.241c-1.433-0.114-3.005-0.543-4.776-1.446
			c2.405-3.318,3.801-6.919,6.425-8.576c11.723-7.405,23.228-15.578,35.874-20.997c19.19-8.224,39.26-14.394,60.308-21.92
			c-0.146-4.621-0.301-9.566-0.46-14.647C662.781,735.401,653.915,736.226,644.847,738.617z"/>
		<path fill="#9EDDEF" d="M523.083,946.764c1.222-17.528,6.667-49.429,31.349-51.357c-3.335-6.982-7.743-13.607-13.135-20.052
			c-10.02,10.351-21.777,18.466-27.995,29.658c-20.487,36.87-8.017,78.503,21.461,101.075c10.694,8.189,22.984,13.155,36.851,11.592
			c-0.177-0.12-0.337-0.28-0.508-0.415C535.377,1014.168,520,976.919,523.083,946.764z"/>
		<path fill="#9EDDEF" d="M565.166,927.746c4.607,13.397,12.094,25.105,23.412,35.03c1.219,0.03,2.267,0.147,3.095,0.623
			c20.235,11.661,42.459,11.211,64.582,10.49c11.203-0.365,22.434-1.835,33.506-3.682c8.415-1.404,12.009-8.059,14.591-15.764
			c-2.012-0.286-3.174-0.843-3.946-0.505c-42.708,18.667-81.465,4.084-119.781-14.172c-3.999-1.905-7.37-4.205-5.153-9.456
			c-2.323-2.038-5.048-3.326-7.523-5.082C567.236,926.122,566.318,926.966,565.166,927.746z"/>
		<path fill="#9EDDEF" d="M377.487,298.733c-1.115-3.828-2.291-7.639-3.388-11.287c-13.92,1.585-19.047,4.323-30.952,16.29
			c8.019,8.915,14.599,18.362,19.832,28.303c6.342-4.664,14.323-6.707,19.803-12.747
			C380.865,312.448,379.474,305.555,377.487,298.733z"/>
		<path fill="#9EDDEF" d="M253.95,616.713c-0.216-2.231-0.242-5.029-0.242-8.761c0-1.947-0.785-3.894-1.131-5.494
			c-36.88-13.825-72.508-13.391-109.127,0.722c-8.733,3.366-17.808,5.842-26.726,8.727c-0.601-1.077-1.202-2.153-1.803-3.23
			c2.674-2.68,4.875-6.34,8.093-7.892c1.847-0.891,3.7-1.707,5.552-2.533c-2.75-63.727,5.391-133.467,40.209-184.003
			c-11.998-4.783-25.104-8.125-39.6-9.684c-3.632,6.861-7.921,12.374-9.588,18.59c-5.432,20.265-11.89,40.557-14.281,61.263
			c-3.529,30.558-4.72,61.465-5.282,92.254c-0.294,16.134-0.134,32.662,3.59,49.956c14.014-3.877,26.359-7.243,38.675-10.714
			c8.844-2.493,17.532-6.695,26.496-7.358c16.865-1.248,33.882-0.685,50.827-0.386c3.067,0.054,6.093,2.443,8.963,3.679
			c-0.383,1.983-1.026,3.327-1.819,4.302C235.742,615.321,244.948,613.462,253.95,616.713z"/>
		<path fill="#9EDDEF" d="M272.223,489.158c-2.85-3.024-4.215-3.899-4.763-5.136c-14.43-32.562-38.166-57.28-66.924-77.165
			c-12.163-8.41-25.762-15.154-39.479-20.774c-10.684-4.377-18.866-4.296-23.274,8.796c9.807,2.319,20.323,3.073,29.266,7.219
			c38.868,18.023,69.254,45.76,90.499,83.151c1.576,2.774,2.802,5.754,1.988,8.876c2.769,6.614,5.988,12.86,9.333,19.005
			c2.171-8.831,4.99-15.776,8.734-21.244c-1.623-1.896-3.142-3.857-4.524-5.903C272.774,486.973,272.47,488.028,272.223,489.158z"/>
		<path fill="#9EDDEF" d="M364.896,458.713c17.894-58.792-2.83-133.112-32.754-150.979c7.276,16.273,16.064,32.06,21.489,48.928
			c8.579,26.676,9.773,40.332,5.189,51.497c0.553,20.727,0.752,42.765-3.925,63.086c0.638-0.037,1.275-0.093,1.913-0.129
			c2.256-0.125,4.535,0.157,6.818,0.516c2.543-4.308,5.676-8.48,8.169-12.799C370.138,460.179,367.826,460.509,364.896,458.713z"/>
		<path fill="#9EDDEF" d="M331.611,327.369c-8.907-15.361-11.662-17.333-29.454-14.299c-11.134,1.899-22.114,4.708-33.254,6.56
			c-33.614,5.587-64.026,18.628-91.374,38.823c-5.898,4.356-11.273,9.42-17.353,14.549c2.803,1.878,3.965,2.951,5.336,3.53
			c10.874,4.596,21.154,9.928,30.881,15.939c44.662-22.996,100.259-15.279,143.842-47.469
			C337.771,339.007,334.943,333.116,331.611,327.369z"/>
		<path fill="#9EDDEF" d="M998.309,469.7l0.088,0.919c-33.663,50.627-98.695,78.003-158.708,72.953
			c-0.496,1.701-0.995,3.401-1.481,5.103c-0.967,3.389-2.32,7.105-4.675,9.516c-1.726,1.767-5.384,1.646-10.276,2.905
			c27.865-56.105,32.48-112.934,25.802-172.725c0.891,0.133,1.668,0.311,2.389,0.51c0.061-3.396,0.178-6.905-1.509-9.797
			c-4.779,1.953-9.328,2.298-13.66,1.096c1.057,2.746,1.255,5.783,1.27,8.688c4.427,1.696,4.826,5.437,5.43,8.951
			c7.883,45.885,0.543,90.149-14.633,133.475c-1.848,5.277-3.42,12.394-14.276,10.473c1.628-2.434,3.087-4.899,4.458-7.379
			c-24.425-13.492-57.039-11.82-77.386-35.954c-4.237,6.019-8.084,11.484-12.407,17.625c8.21,6.289,15.188,12.211,22.729,17.296
			c17.883,12.059,35.63,24.416,54.269,35.208c7.68,4.447,17.539,7.289,26.356,7.165c17.936-0.252,36.085-1.7,53.695-5.038
			c30.032-5.693,57.961-17.747,84.437-32.95c5.752-3.303,11.203-7.365,16.149-11.796
			C1010.937,503.931,1012.876,497.099,998.309,469.7z"/>
		<path fill="#9EDDEF" d="M1021.145,481.562c-5.137-13.973-9.356-28.573-16.615-41.419c-17.295-30.605-40.161-57.189-64.162-82.755
			c-3.259-3.471-6.546-6.915-9.82-10.372c0.731-0.875,1.461-1.75,2.192-2.625c1.273,0.472,2.699,0.781,4.042,1.178
			c-4.98-8.599-14.97-9.427-23.056-12.308c-4.938,4.665-9.943,9.253-15.072,13.696c6.015,1.254,11.309,3.164,14.349,7.129
			c3.467,0.85,6.096,3.587,8.471,5.836c11.914,11.285,23.624,22.834,34.742,34.899c23.812,25.84,45.249,53.311,56.507,87.352
			c0.966,2.921,3.173,5.432,6.636,11.17C1020.409,487.018,1021.984,483.846,1021.145,481.562z"/>
		<path fill="#35215E" d="M540.4,192.79c35.159-3.372,66.359,6.605,95.975,24.085c11.877,7.01,24.807,12.247,36.617,19.357
			c35.471,21.357,49.125,54.807,47.134,94.255c-0.991,19.636-11.641,37.373-24.291,52.608
			c-27.761,33.434-63.969,48.743-107.263,47.82c-26.461-0.563-52.109-5.491-76.816-14.813c-6.127-2.312-11.44-6.728-17.229-9.996
			c-37.524-21.182-60.703-54.728-78.959-92.288c-6.772-13.932-2.653-28.546,1.941-41.886c7.67-22.274,19.962-42.046,41.097-54.266
			c9.679-5.596,19.953-10.849,30.633-13.866C505.99,199.065,523.316,196.356,540.4,192.79z"/>
		<path fill="#F770A8" d="M456.754,254.522c46.605-45.215,106.57-51.71,167.244-44.432c-25.941-13.181-53.297-20.206-83.598-17.3
			c-17.083,3.566-34.409,6.275-51.163,11.009c-10.68,3.018-20.955,8.27-30.634,13.866c-21.135,12.22-33.426,31.992-41.097,54.266
			c-4.594,13.339-8.713,27.954-1.941,41.886c2.471,5.085,5.043,10.087,7.718,15.004
			C427.655,300.467,436.444,273.883,456.754,254.522z"/>
		<path fill="#FFFFFF" d="M371.594,273.933c-16.264,6.67-30.728,19.789-51.74,24.568c0.731-15.931,0.882-30.205,2.165-44.376
			c1.624-17.93,4.09-35.786,6.336-53.656c3.459-27.51,12.65-53.449,27.27-76.545c17.246-27.243,43.086-41.767,76.31-41.768
			c51.124-0.002,101.606,5.042,151.34,17.221c37.414,9.162,74.795,18.54,112.445,26.638c30.031,6.459,53.34,23.752,75.194,43.548
			c12.729,11.53,17.158,27.701,20.346,44.075c5.807,29.831,1.781,59.493-1.576,89.149c-0.966,8.537-2.594,16.998-3.938,25.616
			c-17.093-4.12-16.823-4.527-17.524-20.337c-0.698-15.726-3.798-30.567-19.343-39.704c-3.72-2.187-6.452-7.708-7.649-12.223
			c-3.688-13.914-5.761-28.272-9.75-42.086c-2.509-8.688-5.906-17.839-11.422-24.782c-9.885-12.442-20.203-25.473-33.014-34.434
			c-17.918-12.533-37.059-23.54-58.042-31.341c-34.169-12.703-69.517-14.017-104.854-11.977
			c-32.328,1.866-60.302,16.238-83.566,39.067c-17.581,17.252-31.117,37.017-37.248,61.225c-2.11,8.33-5.539,14.674-14.309,18.62
			c-4.868,2.19-9.125,8.464-11.055,13.832C374.89,252.83,373.979,262.176,371.594,273.933z"/>
		<path fill="#9EDDEF" d="M345.62,226.025c-3.818,4.628-12.886,10.424-21.984,12.472c-0.589,5.205-1.145,10.413-1.617,15.628
			c-1.283,14.172-1.433,28.446-2.165,44.376c21.012-4.779,35.475-17.898,51.74-24.568c2.384-11.757,3.296-21.103,6.376-29.67
			c1.93-5.369,6.187-11.642,11.055-13.832c8.771-3.947,12.2-10.291,14.309-18.62c5.163-20.383,15.617-37.591,29.274-52.826
			C393.031,163.461,371.614,194.522,345.62,226.025z"/>
		<path fill="#9EDDEF" d="M784.151,277.353c-25.7-23.582-28.152-62.889-58.039-78.031c2.219,4.738,3.947,9.803,5.37,14.731
			c3.989,13.813,6.062,28.171,9.75,42.086c1.197,4.515,3.93,10.036,7.65,12.223c15.545,9.137,18.645,23.978,19.343,39.704
			c0.701,15.81,0.431,16.217,17.524,20.337c1.344-8.618,2.972-17.079,3.938-25.616c0.817-7.215,1.671-14.431,2.416-21.649
			C789.308,280.186,786.631,278.976,784.151,277.353z"/>
		<path fill="#FFFFFF" d="M399.089,335.383c13.041-1.231,20.69,2.475,26.837,13.949c11.487,21.443,27.538,39.517,48.212,53.083
			c7.728,5.071,14.713,11.309,22.583,16.121c6.466,3.954,13.689,6.706,20.667,9.784c19.02,8.39,39.12,11.441,59.735,13.002
			c48.072,3.641,90.715-7.329,124.688-43.656c4.546-4.861,9.201-9.801,14.56-13.656c3.589-2.581,8.51-3.309,14.933-5.62
			c-6.384,51.301-32.285,85.354-76.898,102.181c-52.275,19.717-105.612,15.717-155.816-7.76
			c-29.702-13.889-56.581-33.727-75.153-62.127C408.593,387.984,399.472,363.315,399.089,335.383z"/>
		<path fill="#9EDDEF" d="M459.275,437.963c-12.493-16.923-16.69-38.976-11.977-58.397c-8.329-9.09-15.465-19.207-21.372-30.234
			c-6.146-11.474-13.796-15.18-26.837-13.949c0.382,27.932,9.504,52.601,24.348,75.301c18.572,28.401,45.451,48.238,75.153,62.127
			c20.526,9.598,41.58,15.879,62.867,18.677C522.657,483.145,485.231,468.713,459.275,437.963z"/>
		<path fill="#9EDDEF" d="M716.371,384.011c-5.358,3.855-10.014,8.795-14.56,13.655c-8.248,8.82-17.017,16.118-26.242,22.102
			c3.14,8.356-0.464,18.634-1.872,24.75c-7.082,18.362-23.846,33.454-43.708,43.513c8.154-1.928,16.298-4.398,24.417-7.46
			c44.613-16.827,70.514-50.879,76.898-102.181C724.881,380.703,719.959,381.43,716.371,384.011z"/>
		<path fill="#6B50A9" d="M407.708,263.078c-2.712-19.145-0.559-37.018,8.157-53.726c2.379-4.56,5.962-8.735,7.293-13.557
			c6.694-24.259,24.143-39.223,44.651-50.735c33.033-18.543,68.468-27.157,107.338-21.805c1.383,4.891,2.726,9.638,4.962,17.545
			c2.854-6.617,4.596-10.654,6.322-14.657c84.687,18.996,141.701,79.184,138.962,150.975c-9.093-12.618-16.075-25.024-25.673-34.884
			c-10.284-10.566-22.382-19.759-34.885-27.657c-12.071-7.626-25.355-13.629-38.681-18.887
			c-13.311-5.252-27.335-8.695-41.847-13.179c-0.996-10.396-1.973-20.59-2.95-30.783c-1.149-0.06-2.298-0.12-3.447-0.18
			c-1.117,9.195-2.234,18.391-3.511,28.907c-8.033,0.037-15.572,0.587-23.027,0.02c-46.585-3.543-85.669,13.106-118.575,44.919
			c-7.948,7.684-13.158,18.229-19.455,27.573C411.194,256.154,409.571,259.697,407.708,263.078z"/>
		<path fill="#9650B9" d="M475.603,168.402c-20.1,7.122-39.204,18.653-55.473,33.889c-1.42,2.347-3.007,4.651-4.264,7.06
			c-8.716,16.708-10.869,34.581-8.157,53.726c1.863-3.381,3.486-6.923,5.635-10.111c6.298-9.345,11.508-19.89,19.455-27.573
			c32.906-31.813,71.989-48.462,118.575-44.919c7.454,0.567,14.994,0.016,23.027-0.02c1.088-8.953,2.058-16.941,3.012-24.795
			C542.748,152.01,507.187,156.449,475.603,168.402z"/>
		<path fill="#9650B9" d="M581.777,156.11c0.837,8.739,1.676,17.492,2.53,26.401c14.512,4.484,28.536,7.928,41.847,13.179
			c13.326,5.258,26.61,11.261,38.681,18.887c12.503,7.898,24.602,17.091,34.885,27.657c9.597,9.861,16.579,22.267,25.673,34.885
			c0.342-8.955-0.248-17.729-1.703-26.265C695.07,193.931,640.019,163.408,581.777,156.11z"/>
		<path fill="#9EDDEF" d="M684.497,706.498c0.239-6.883-0.198-13.998,0.846-20.888c4.162-27.461,7.539-55.134,13.629-82.182
			c4.948-21.974,13.273-43.196,20.315-64.682c1.086-3.313,3.322-6.25,4.875-9.083c1.628,0.11,2.786-0.164,3.468,0.285
			c21.351,14.076,21.126,14.033,15.163,38.487c-6.703,27.489-12.581,55.184-19.564,82.599c-3.672,14.418-8.549,28.57-13.594,42.587
			C704.991,706.528,701.793,707.909,684.497,706.498z"/>
		<path fill="#9EDDEF" d="M318.326,646.88c-19.259-1.266-27.034-9.451-25.641-25.589c1.411-16.344,2.392-32.743,4.409-49.012
			c3.649-29.44,7.928-58.803,12.091-89.272c10.131,0.218,18.508,0.398,28.402,0.611C333.23,538.932,334.357,593.36,318.326,646.88z"
			/>
		<path fill="#9EDDEF" d="M696.395,114.847c-15.805-3.191-30.773-5.729-45.495-9.287c-30.886-7.463-61.465-16.285-92.511-22.968
			c-22.519-4.848-45.586-7.155-68.901-10.669c-0.178-6.618,0.014-11.67,8.81-10.052c17.647,3.248,35.354,6.17,53.043,9.193
			c20.742,3.545,41.608,6.486,62.206,10.729c23.043,4.747,45.95,10.267,68.688,16.308
			C688.871,99.865,697.246,102.257,696.395,114.847z"/>
		<path fill="#FFFFFF" d="M742.953,278.381c11.365,3.092,13.902,11.071,14.601,18.271c2.154,22.181-0.156,43.869-11.682,63.728
			c-3.795,6.54-9.437,8.631-18.724,8.532C736.82,338.889,743.318,309.51,742.953,278.381z"/>
		<path fill="#FFFFFF" d="M396.373,237.642c-2.938,31.316-2.187,59.221,13.502,84.526c-14.087,2.813-17.626,1.916-19.97-9.194
			c-3.46-16.406-5.736-33.158-7.065-49.878C382.163,254.565,385.132,246.012,396.373,237.642z"/>
		<path fill="#6B50A9" d="M511.517,1001.878c12.643,9.109,22.021,15.866,33.003,23.779c1.397,5.977-1.65,12.969-6.204,19.05
			c-2.515,3.358-7.314,7.907-10.235,7.363c-4.147-0.773-9.097-5.058-10.837-9.082c-2.548-5.892-2.731-12.859-3.598-19.411
			C512.806,1017.217,512.373,1010.804,511.517,1001.878z"/>
		<path fill="#6B50A9" d="M350.325,1114.437c-6.462,5.792-11.469,10.676-16.898,15.034c-5.333,4.28-11.266,4.019-17.207,0.905
			c-6.557-3.437-5.46-9.266-4.292-14.739c1.343-6.29,3.389-12.43,5.186-18.836C328.126,1102.648,337.933,1107.856,350.325,1114.437z
			"/>
		<path fill="#35215E" d="M632.221,577.602c-1.883,27.637-2.711,55.401-5.983,82.872c-2.626,22.042-12.54,28.607-34.975,27.108
			c-32.75-2.189-65.568-3.789-98.197-7.178c-21.391-2.221-42.526-7.021-63.728-10.926c-13.315-2.453-21.088-10.178-20.968-24.31
			c0.127-14.874-0.933-29.94,1.083-44.57c2.87-20.826,7.829-41.384,12.365-61.953c2.939-13.327,7.014-17.273,21.1-17.933
			c17.422-0.816,34.979-0.995,52.366,0.185c30.727,2.083,61.388,5.223,92.044,8.253c30.432,3.008,38.108,10.658,41.885,40.659
			c0.321,2.551,0.501,5.12,0.746,7.68C630.713,577.526,631.467,577.564,632.221,577.602z M425.641,566.747
			c-7.758,23.685-10.199,47.982-7.753,72.84c1.42,14.438,2.532,16.571,16.761,19.977c13.48,3.226,27.306,5.011,40.986,7.396
			c45.617,7.954,91.304,13.546,137.424,3.929c8.389-19.82,12.264-66.844,6.981-88.813
			C556.076,572.077,491.645,563.593,425.641,566.747z M619.325,568.5c-2.749-20.359-6.286-24.401-23.885-27.914
			c-4.019-0.802-8.108-1.286-12.183-1.767c-21.911-2.586-43.77-6.02-65.757-7.44c-24.026-1.551-48.172-1.23-72.266-1.711
			c-8.369-0.167-13.87,3.075-14.539,12.182c-0.252,3.427-0.772,6.835-1.173,10.273C430.4,552.199,618.08,568.393,619.325,568.5z"/>
		<path fill="#35215E" d="M456.41,805.351c-5.941,4.259-7.914-0.158-10.258-4.478c-7.083-13.054-14.224-26.079-21.54-39.003
			c-14.749-26.053-36.813-45.138-60.726-62.149c-15.509-11.033-17.306-11.88-23.247-24.361
			c12.731,6.252,23.366,11.443,32.993,18.554c29.351,21.682,52.679,48.748,70.094,80.689c5.306,9.731,8.363,20.688,12.45,31.081
			L456.41,805.351z"/>
		<path fill="#35215E" d="M849.058,388.371c9.204,1.375,8.835,6.475,9.387,10.834c3.7,29.249,2.757,58.494-3.185,87.234
			c-4.346,21.024-11.149,41.546-17.053,62.236c-0.967,3.389-2.32,7.105-4.675,9.516c-1.726,1.767-5.384,1.646-10.276,2.905
			C851.122,504.991,855.737,448.162,849.058,388.371z"/>
		<path fill="#35215E" d="M288.936,913.278c4.099,1.149,8.494,1.696,12.249,3.543c30.133,14.821,60.647,18.635,92.089,4.174
			c1.184-0.545,2.913,0.094,4.495,0.188c0.928,7.614-4.47,10.293-9.632,12.181c-17.522,6.408-35.08,10.714-54.185,5.609
			c-16.911-4.519-33.426-8.947-46.152-21.72C288.178,915.928,288.557,914.603,288.936,913.278z"/>
		<path fill="#35215E" d="M814.07,541.768c15.969-23.876,18.787-50.108,23.332-75.753c4.59-25.899,0.557-51.707-4.299-78.029
			c8.703,0.561,9.111,5.386,9.875,9.834c7.883,45.885,0.543,90.149-14.632,133.475C826.498,536.572,824.927,543.689,814.07,541.768z
			"/>
		<path fill="#FFFFFF" d="M425.641,566.747c66.004-3.154,130.435,5.33,194.399,15.33c5.282,21.969,1.408,68.992-6.981,88.812
			c-46.12,9.618-91.807,4.025-137.424-3.928c-13.68-2.385-27.506-4.17-40.986-7.396c-14.229-3.406-15.341-5.538-16.761-19.977
			C415.442,614.728,417.883,590.432,425.641,566.747z"/>
		<path fill="#9EDDEF" d="M439.739,566.261c-4.692,0.11-9.39,0.261-14.098,0.486c-7.758,23.685-10.199,47.982-7.753,72.84
			c1.42,14.438,2.532,16.571,16.761,19.977c13.48,3.226,27.306,5.011,40.986,7.397c45.617,7.954,91.304,13.546,137.424,3.928
			c0.243-0.574,0.469-1.246,0.704-1.865c-60.04,0.986-125.296,7.363-168.155-28.001
			C433.379,630.933,434.554,595.868,439.739,566.261z"/>
		<path fill="#9EDDEF" d="M619.325,568.5c-1.245-0.107-188.925-16.301-189.803-16.377c0.4-3.438,0.921-6.846,1.173-10.273
			c0.669-9.107,6.17-12.349,14.539-12.182c24.094,0.48,48.241,0.16,72.266,1.711c21.988,1.42,43.846,4.854,65.757,7.44
			c4.075,0.481,8.164,0.965,12.183,1.767C613.038,544.099,616.575,548.141,619.325,568.5z"/>
	</g>
	<path fill="#F770A8" d="M545.251,225.231l17.311,5.042c0.652,0.19,1.182-0.543,0.797-1.103l-16.545-24.076
		c-0.182-0.265-0.515-0.373-0.818-0.268c-9.872,3.428-20.262,5.423-30.833,6.598c-0.083,0.009-0.163,0.033-0.238,0.069
		c-5.672,2.791-11.257,5.759-16.77,8.849c-7.415,4.158-14.75,8.451-22.1,12.718c-0.076,0.044-0.142,0.101-0.196,0.17
		c-1.939,2.46-4.008,4.847-6.198,7.114c-0.191,0.198-0.252,0.485-0.156,0.742l1.258,3.37c0.007,0.019,0.014,0.039,0.019,0.059
		l10.692,38.383c0.205,0.736,1.264,0.691,1.406-0.06l3.524-18.64c0.128-0.678,1.042-0.808,1.354-0.192l11.19,22.089
		c0.351,0.693,1.398,0.419,1.366-0.357l-0.79-18.929c-0.028-0.674,0.802-1.016,1.256-0.516l15.838,17.422
		c0.457,0.502,1.291,0.154,1.256-0.524l-0.936-17.875c-0.036-0.678,0.799-1.026,1.256-0.524l14.819,16.302
		c0.516,0.568,1.445,0.045,1.227-0.691l-6.856-23.183c-0.196-0.664,0.563-1.197,1.121-0.787l21.954,16.144
		c0.595,0.437,1.385-0.194,1.09-0.871l-11.93-27.35c-0.275-0.63,0.402-1.251,1.006-0.924l17.346,9.382
		c0.638,0.345,1.33-0.361,0.972-0.992l-14.521-25.543C544.101,225.717,544.628,225.05,545.251,225.231z"/>
</g>
</svg>
