<svg version="1.1" viewBox="0.0 0.0 847.4304461942257 178.28608923884514" fill="none" stroke="none" stroke-linecap="square" stroke-miterlimit="10" xmlns:xlink="http://www.w3.org/1999/xlink" xmlns="http://www.w3.org/2000/svg"><clipPath id="p.0"><path d="m0 0l847.4304 0l0 178.28609l-847.4304 0l0 -178.28609z" clip-rule="nonzero"/></clipPath><g clip-path="url(#p.0)"><path fill="#000000" fill-opacity="0.0" d="m0 0l847.4304 0l0 178.28609l-847.4304 0z" fill-rule="evenodd"/><path fill="#000000" fill-opacity="0.0" d="m0 0l848.62994 0l0 171.1811l-848.62994 0z" fill-rule="evenodd"/><path fill="#ffffff" d="m149.31497 131.88l-17.875 0l0 -64.0q0 -1.875 -0.71875 -3.5q-0.71875 -1.625 -1.9375 -2.84375q-1.21875 -1.21875 -2.84375 -1.90625q-1.625 -0.6875 -3.5 -0.6875q-1.875 0 -3.5 0.6875q-1.625 0.6875 -2.84375 1.90625q-1.21875 1.21875 -1.90625 2.84375q-0.6875 1.625 -0.6875 3.5l0 64.0l-17.9375 0l0 -64.0q0 -1.875 -0.6875 -3.5q-0.6875 -1.625 -1.90625 -2.84375q-1.21875 -1.21875 -2.84375 -1.90625q-1.625 -0.6875 -3.5 -0.6875q-1.875 0 -3.5 0.6875q-1.625 0.6875 -2.84375 1.90625q-1.21875 1.21875 -1.90625 2.84375q-0.6875 1.625 -0.6875 3.5l0 64.0l-17.9375 0l0 -64.0q0 -5.5625 2.09375 -10.46875q2.09375 -4.90625 5.75 -8.5625q3.65625 -3.65625 8.5625 -5.75q4.90625 -2.09375 10.46875 -2.09375q5.0 0 9.625 1.78125q4.625 1.78125 8.3125 5.15625q3.6875 -3.375 8.28125 -5.15625q4.59375 -1.78125 9.59375 -1.78125q5.5625 0 10.46875 2.09375q4.90625 2.09375 8.5625 5.75q3.65625 3.65625 5.75 8.5625q2.09375 4.90625 2.09375 10.46875l0 64.0zm56.3125 0l-17.875 0l0 -28.0625q-5.9375 -1.5 -10.90625 -4.8125q-4.96875 -3.3125 -8.53125 -7.90625q-3.5625 -4.59375 -5.53125 -10.1875q-1.96875 -5.59375 -1.96875 -11.78125l0 -26.875l17.9375 0l0 26.875q0 3.6875 1.40625 6.96875q1.40625 3.28125 3.84375 5.71875q2.4375 2.4375 5.71875 3.84375q3.28125 1.40625 6.96875 1.40625q3.6875 0 6.96875 -1.40625q3.28125 -1.40625 5.71875 -3.84375q2.4375 -2.4375 3.84375 -5.71875q1.40625 -3.28125 1.40625 -6.96875l0 -26.875l17.875 0l0 26.875q0 6.1875 -1.96875 11.78125q-1.96875 5.59375 -5.53125 10.1875q-3.5625 4.59375 -8.5 7.90625q-4.9375 3.3125 -10.875 4.8125l0 28.0625zm137.625 0l-62.75 0l0 -89.625l17.9375 0l0 71.6875l44.8125 0l0 17.9375zm27.25 0l-17.9375 0l0 -89.625l17.9375 0l0 89.625zm88.3125 -26.875q0 5.5625 -2.125 10.4375q-2.125 4.875 -5.78125 8.53125q-3.65625 3.65625 -8.53125 5.78125q-4.875 2.125 -10.4375 2.125l-44.8125 0l0 -89.625l44.8125 0q5.5625 0 10.4375 2.125q4.875 2.125 8.53125 5.78125q3.65625 3.65625 5.78125 8.53125q2.125 4.875 2.125 10.4375q0 2.5 -0.6875 5.125q-0.6875 2.625 -1.9375 5.0625q-1.25 2.4375 -3.0 4.4375q-1.75 2.0 -3.875 3.3125q2.1875 1.1875 3.9375 3.21875q1.75 2.03125 3.0 4.46875q1.25 2.4375 1.90625 5.09375q0.65625 2.65625 0.65625 5.15625zm-53.75 8.9375l26.875 0q1.875 0 3.5 -0.6875q1.625 -0.6875 2.84375 -1.90625q1.21875 -1.21875 1.90625 -2.84375q0.6875 -1.625 0.6875 -3.5q0 -1.875 -0.6875 -3.5q-0.6875 -1.625 -1.90625 -2.84375q-1.21875 -1.21875 -2.84375 -1.90625q-1.625 -0.6875 -3.5 -0.6875l-26.875 0l0 17.875zm0 -35.8125l26.875 0q1.875 0 3.5 -0.6875q1.625 -0.6875 2.84375 -1.90625q1.21875 -1.21875 1.90625 -2.875q0.6875 -1.65625 0.6875 -3.53125q0 -1.875 -0.6875 -3.5q-0.6875 -1.625 -1.90625 -2.84375q-1.21875 -1.21875 -2.84375 -1.90625q-1.625 -0.6875 -3.5 -0.6875l-26.875 0l0 17.9375zm85.25 -17.9375l0 35.875l17.9375 0q3.6875 0 6.9374695 -1.40625q3.25 -1.40625 5.6875 -3.84375q2.4375 -2.4375 3.84375 -5.71875q1.40625 -3.28125 1.40625 -6.96875q0 -3.6875 -1.40625 -6.96875q-1.40625 -3.28125 -3.84375 -5.71875q-2.4375 -2.4375 -5.6875 -3.84375q-3.2499695 -1.40625 -6.9374695 -1.40625l-17.9375 0zm0 71.6875l-17.9375 0l0 -89.625l35.875 0q4.9374695 0 9.4999695 1.28125q4.5625 1.28125 8.53125 3.625q3.96875 2.34375 7.25 5.625q3.28125 3.28125 5.625 7.28125q2.34375 4.0 3.625 8.5625q1.28125 4.5625 1.28125 9.5q0 4.625 -1.15625 9.0q-1.15625 4.375 -3.3125 8.3125q-2.15625 3.9375 -5.28125 7.25q-3.125 3.3125 -7.0 5.75l9.9375 23.4375l-19.0625 0l-7.8124695 -18.0625l-20.0625 0.125l0 17.9375zm118.24997 -35.8125l0 -17.9375q0 -3.6875 -1.40625 -6.96875q-1.40625 -3.28125 -3.84375 -5.71875q-2.4375 -2.4375 -5.71875 -3.84375q-3.28125 -1.40625 -6.96875 -1.40625q-3.6875 0 -6.96875 1.40625q-3.28125 1.40625 -5.71875 3.84375q-2.4375 2.4375 -3.84375 5.71875q-1.40625 3.28125 -1.40625 6.96875l0 17.9375l35.875 0zm17.9375 35.8125l-17.9375 0l0 -17.9375l-35.875 0l0 17.9375l-17.875 0l0 -53.75q0 -7.4375 2.8125 -13.96875q2.8125 -6.53125 7.65625 -11.40625q4.84375 -4.875 11.375 -7.6875q6.53125 -2.8125 13.96875 -2.8125q7.4375 0 13.96875 2.8125q6.53125 2.8125 11.40625 7.6875q4.875 4.875 7.6875 11.40625q2.8125 6.53125 2.8125 13.96875l0 53.75zm33.5 -71.6875l0 35.875l17.9375 0q3.6875 0 6.9375 -1.40625q3.25 -1.40625 5.6875 -3.84375q2.4375 -2.4375 3.84375 -5.71875q1.40625 -3.28125 1.40625 -6.96875q0 -3.6875 -1.40625 -6.96875q-1.40625 -3.28125 -3.84375 -5.71875q-2.4375 -2.4375 -5.6875 -3.84375q-3.25 -1.40625 -6.9375 -1.40625l-17.9375 0zm0 71.6875l-17.9375 0l0 -89.625l35.875 0q4.9375 0 9.5 1.28125q4.5625 1.28125 8.53125 3.625q3.96875 2.34375 7.25 5.625q3.28125 3.28125 5.625 7.28125q2.34375 4.0 3.625 8.5625q1.28125 4.5625 1.28125 9.5q0 4.625 -1.15625 9.0q-1.15625 4.375 -3.3125 8.3125q-2.15625 3.9375 -5.28125 7.25q-3.125 3.3125 -7.0 5.75l9.9375 23.4375l-19.0625 0l-7.8125 -18.0625l-20.0625 0.125l0 17.9375zm105.8125 0l-17.875 0l0 -28.0625q-5.9375 -1.5 -10.90625 -4.8125q-4.96875 -3.3125 -8.53125 -7.90625q-3.5625 -4.59375 -5.53125 -10.1875q-1.96875 -5.59375 -1.96875 -11.78125l0 -26.875l17.9375 0l0 26.875q0 3.6875 1.40625 6.96875q1.40625 3.28125 3.84375 5.71875q2.4375 2.4375 5.71875 3.84375q3.28125 1.40625 6.96875 1.40625q3.6875 0 6.96875 -1.40625q3.28125 -1.40625 5.71875 -3.84375q2.4375 -2.4375 3.84375 -5.71875q1.40625 -3.28125 1.40625 -6.96875l0 -26.875l17.875 0l0 26.875q0 6.1875 -1.96875 11.78125q-1.96875 5.59375 -5.53125 10.1875q-3.5625 4.59375 -8.5 7.90625q-4.9375 3.3125 -10.875 4.8125l0 28.0625z" fill-rule="nonzero"/></g></svg>