<svg version="1.1" height="125px" viewBox="0.0 0.0 790.2309711286089 167.04199475065616" fill="none" stroke="none" stroke-linecap="square" stroke-miterlimit="10" xmlns:xlink="http://www.w3.org/1999/xlink" xmlns="http://www.w3.org/2000/svg"><clipPath id="p.0"><path d="m0 0l790.23096 0l0 167.04199l-790.23096 0l0 -167.04199z" clip-rule="nonzero"/></clipPath><g clip-path="url(#p.0)"><path fill="#000000" fill-opacity="0.0" d="m0 0l790.23096 0l0 167.04199l-790.23096 0z" fill-rule="evenodd"/><path fill="#000000" fill-opacity="0.0" d="m-36.66142 -1.0774279l798.39374 0l0 169.19684l-798.39374 0z" fill-rule="evenodd"/><path fill="#ffffff" d="m95.53542 86.365074q0 6.375 -1.65625 12.28125q-1.65625 5.90625 -4.65625 11.0625q-3.0 5.15625 -7.25 9.40625q-4.25 4.25 -9.375 7.28125q-5.125 3.0312576 -11.062504 4.6875076q-5.9375 1.65625 -12.3125 1.65625q-6.375 0 -12.28125 -1.65625q-5.906248 -1.65625 -11.062498 -4.6875076q-5.15625 -3.03125 -9.40625 -7.28125q-4.25 -4.25 -7.28125 -9.40625q-3.0312505 -5.15625 -4.6875005 -11.0625q-1.6562498 -5.90625 -1.6562498 -12.28125q0 -6.375 1.6562498 -12.3125q1.65625 -5.9375 4.6875005 -11.062496q3.03125 -5.125 7.28125 -9.375q4.25 -4.25 9.40625 -7.25q5.15625 -3.0 11.062498 -4.65625q5.90625 -1.65625 12.28125 -1.65625q6.375 0 12.3125 1.65625q5.937504 1.65625 11.062504 4.65625q5.125 3.0 9.375 7.25q4.25 4.25 7.25 9.375q3.0 5.124996 4.65625 11.062496q1.65625 5.9375 1.65625 12.3125zm-17.8125 0q0 -5.875 -2.25 -11.09375q-2.25 -5.21875 -6.09375 -9.0625q-3.84375 -3.8437462 -9.062504 -6.093746q-5.21875 -2.25 -11.09375 -2.25q-5.9375 0 -11.125 2.25q-5.1875 2.25 -9.062498 6.093746q-3.875 3.84375 -6.125 9.0625q-2.25 5.21875 -2.25 11.09375q0 5.875 2.25 11.03125q2.25 5.15625 6.125 9.03125q3.874998 3.875 9.062498 6.125q5.1875 2.25 11.125 2.25q5.875 0 11.09375 -2.25q5.218754 -2.25 9.062504 -6.125q3.84375 -3.875 6.09375 -9.03125q2.25 -5.15625 2.25 -11.03125zm100.24999 8.625q0 7.4375 -2.8125 13.96875q-2.8125 6.53125 -7.6875 11.375q-4.875 4.84375 -11.40625 7.65625q-6.53125 2.8125076 -13.96875 2.8125076q-7.4375 0 -13.96875 -2.8125076q-6.5312424 -2.8125 -11.374992 -7.65625q-4.84375 -4.84375 -7.65625 -11.375q-2.8125 -6.53125 -2.8125 -13.96875l0 -53.812496l17.875 0l0 53.812496q0 3.6875 1.40625 6.9375q1.40625 3.25 3.8437424 5.6875q2.4375 2.4375 5.71875 3.84375q3.28125 1.40625 6.96875 1.40625q3.6875 0 6.96875 -1.40625q3.28125 -1.40625 5.71875 -3.84375q2.4375 -2.4375 3.84375 -5.6875q1.40625 -3.25 1.40625 -6.9375l0 -53.812496l17.9375 0l0 53.812496zm33.5 -35.874996l0 35.874996l17.9375 0q3.6875 0 6.9375 -1.40625q3.25 -1.40625 5.6875 -3.84375q2.4375 -2.4375 3.84375 -5.71875q1.40625 -3.28125 1.40625 -6.96875q0 -3.6875 -1.40625 -6.96875q-1.40625 -3.28125 -3.84375 -5.71875q-2.4375 -2.4374962 -5.6875 -3.8437462q-3.25 -1.40625 -6.9375 -1.40625l-17.9375 0zm0 71.6875l-17.9375 0l0 -89.625l35.875 0q4.9375 0 9.5 1.28125q4.5625 1.28125 8.53125 3.625q3.96875 2.34375 7.25 5.625q3.2812653 3.28125 5.6250153 7.28125q2.34375 4.0 3.625 8.562496q1.28125 4.5625 1.28125 9.5q0 4.625 -1.15625 9.0q-1.15625 4.375 -3.3125 8.3125q-2.15625 3.9375 -5.2812653 7.25q-3.125 3.3125 -7.0 5.75l9.937515 23.437508l-19.062515 0l-7.8125 -18.062508l-20.0625 0.125l0 17.937508zm172.62502 -9.062508q-6.25 5.3125 -13.9375 8.156258q-7.6875 2.84375 -16.0 2.84375q-6.375 0 -12.28125 -1.65625q-5.90625 -1.65625 -11.03125 -4.6875076q-5.125 -3.03125 -9.375 -7.25q-4.25 -4.21875 -7.25 -9.375q-3.0 -5.15625 -4.65625 -11.09375q-1.65625 -5.9375 -1.65625 -12.3125q0 -6.375 1.65625 -12.25q1.65625 -5.875 4.65625 -11.031246q3.0 -5.15625 7.25 -9.375q4.25 -4.21875 9.375 -7.21875q5.125 -3.0 11.03125 -4.65625q5.90625 -1.65625 12.28125 -1.65625q8.3125 0 16.0 2.84375q7.6875 2.84375 13.9375 8.15625l-9.375 15.624996q-4.0625 -4.124996 -9.375 -6.468746q-5.3125 -2.34375 -11.1875 -2.34375q-5.875 0 -11.03125 2.25q-5.15625 2.25 -9.03125 6.093746q-3.875 3.84375 -6.125 9.0q-2.25 5.15625 -2.25 11.03125q0 5.9375 2.25 11.125q2.25 5.1875 6.125 9.0625q3.875 3.875 9.03125 6.125q5.15625 2.25 11.03125 2.25q3.375 0 6.5625 -0.8125q3.1875 -0.8125 6.0625 -2.25l0 -25.5l17.3125 0l0 35.375zm101.625 -35.375q0 6.375 -1.65625 12.28125q-1.65625 5.90625 -4.65625 11.0625q-3.0 5.15625 -7.25 9.40625q-4.25 4.25 -9.375 7.28125q-5.125 3.0312576 -11.0625 4.6875076q-5.9375 1.65625 -12.3125 1.65625q-6.375 0 -12.28125 -1.65625q-5.90625 -1.65625 -11.0625 -4.6875076q-5.15625 -3.03125 -9.40625 -7.28125q-4.25 -4.25 -7.28125 -9.40625q-3.03125 -5.15625 -4.6875 -11.0625q-1.65625 -5.90625 -1.65625 -12.28125q0 -6.375 1.65625 -12.3125q1.65625 -5.9375 4.6875 -11.062496q3.03125 -5.125 7.28125 -9.375q4.25 -4.25 9.40625 -7.25q5.15625 -3.0 11.0625 -4.65625q5.90625 -1.65625 12.28125 -1.65625q6.375 0 12.3125 1.65625q5.9375 1.65625 11.0625 4.65625q5.125 3.0 9.375 7.25q4.25 4.25 7.25 9.375q3.0 5.124996 4.65625 11.062496q1.65625 5.9375 1.65625 12.3125zm-17.8125 0q0 -5.875 -2.25 -11.09375q-2.25 -5.21875 -6.09375 -9.0625q-3.84375 -3.8437462 -9.0625 -6.093746q-5.21875 -2.25 -11.09375 -2.25q-5.9375 0 -11.125 2.25q-5.1875 2.25 -9.0625 6.093746q-3.875 3.84375 -6.125 9.0625q-2.25 5.21875 -2.25 11.09375q0 5.875 2.25 11.03125q2.25 5.15625 6.125 9.03125q3.875 3.875 9.0625 6.125q5.1875 2.25 11.125 2.25q5.875 0 11.09375 -2.25q5.21875 -2.25 9.0625 -6.125q3.84375 -3.875 6.09375 -9.03125q2.25 -5.15625 2.25 -11.03125zm82.31247 8.625l0 -17.9375q0 -3.6875 -1.40625 -6.96875q-1.40625 -3.28125 -3.84375 -5.71875q-2.4375 -2.4374962 -5.71875 -3.8437462q-3.28125 -1.40625 -6.96875 -1.40625q-3.6875 0 -6.96875 1.40625q-3.28125 1.40625 -5.71875 3.8437462q-2.4375 2.4375 -3.84375 5.71875q-1.40625 3.28125 -1.40625 6.96875l0 17.9375l35.875 0zm17.9375 35.812508l-17.9375 0l0 -17.937508l-35.875 0l0 17.937508l-17.87497 0l0 -53.750008q0 -7.4375 2.8125 -13.968746q2.8125 -6.53125 7.65625 -11.40625q4.84375 -4.875 11.3749695 -7.6875q6.53125 -2.8125 13.96875 -2.8125q7.4375 0 13.96875 2.8125q6.53125 2.8125 11.40625 7.6875q4.875 4.875 7.6875 11.40625q2.8125 6.531246 2.8125 13.968746l0 53.750008zm78.3125 0l-62.75 0l0 -89.625l17.9375 0l0 71.6875l44.8125 0l0 17.937508zm4.0625 -62.750008q0 -5.562496 2.125 -10.437496q2.125 -4.875 5.78125 -8.53125q3.65625 -3.65625 8.53125 -5.78125q4.875 -2.125 10.4375 -2.125l41.125 0l0 17.9375l-41.125 0q-1.875 0 -3.5 0.6875q-1.625 0.6875 -2.84375 1.90625q-1.21875 1.21875 -1.90625 2.8437462q-0.6875 1.625 -0.6875 3.5q0 1.875 0.6875 3.53125q0.6875 1.65625 1.90625 2.875q1.21875 1.21875 2.84375 1.90625q1.625 0.6875 3.5 0.6875l17.9375 0q5.5625 0 10.46875 2.09375q4.90625 2.09375 8.5625 5.75q3.65625 3.65625 5.75 8.5625q2.09375 4.90625 2.09375 10.46875q0 5.5625 -2.09375 10.4375q-2.09375 4.875 -5.75 8.53125q-3.65625 3.65625 -8.5625 5.7812576q-4.90625 2.125 -10.46875 2.125l-39.8125 0l0 -17.937508l39.8125 0q1.875 0 3.5 -0.6875q1.625 -0.6875 2.84375 -1.90625q1.21875 -1.21875 1.90625 -2.84375q0.6875 -1.625 0.6875 -3.5q0 -1.875 -0.6875 -3.5q-0.6875 -1.625 -1.90625 -2.84375q-1.21875 -1.21875 -2.84375 -1.90625q-1.625 -0.6875 -3.5 -0.6875l-17.9375 0q-5.5625 0 -10.4375 -2.125q-4.875 -2.125 -8.53125 -5.78125q-3.65625 -3.65625 -5.78125 -8.5625q-2.125 -4.90625 -2.125 -10.46875z" fill-rule="nonzero"/></g></svg>