<svg version="1.1" viewBox="0.0 0.0 769.7191601049868 379.501312335958" fill="none" stroke="none" 
width="900px" height="500px" z-index="100" stroke-linecap="square" stroke-miterlimit="10" xmlns:xlink="http://www.w3.org/1999/xlink" xmlns="http://www.w3.org/2000/svg" id="title-svg"><clipPath id="p.0"><path d="m0 0l769.7192 0l0 379.5013l-769.7192 0l0 -379.5013z" clip-rule="nonzero"/></clipPath><g clip-path="url(#p.0)"><path fill="#000000" fill-opacity="0.0" d="m0 0l769.7192 0l0 379.5013l-769.7192 0z" fill-rule="evenodd"/><path fill="#000000" fill-opacity="0.0" d="m-4.5274906 0l769.73224 0l0 394.01575l-769.73224 0z" fill-rule="evenodd"/><path fill="#ffffff" d="m38.925636 101.159996l-13.406252 0l0 -53.765625l-20.203125 0l0 -13.453125l53.765625 0l0 13.453125l-20.15625 0l0 53.765625zm40.734375 0l-13.453125 0l0 -67.21875l13.453125 0l0 26.90625l26.859375 0l0 -26.90625l13.453125 0l0 67.21875l-13.453125 0l0 -26.859375l-26.859375 0l0 26.859375zm98.85937 0l-46.078125 0l0 -67.21875l46.078125 0l0 13.453125l-32.625 0l0 13.453125l22.078125 0l0 13.453125l-22.078125 0l0 13.40625l32.625 0l0 13.453125z" fill-rule="nonzero"/><path fill="#ffffff" d="m64.19126 209.36313q-4.6875 3.984375 -10.453125 6.125q-5.765625 2.125 -12.0 2.125q-4.78125 0 -9.21875 -1.25q-4.421877 -1.234375 -8.265627 -3.5q-3.84375 -2.28125 -7.03125 -5.4375q-3.1875 -3.171875 -5.4375 -7.03125q-2.25 -3.875 -3.5 -8.328125q-1.234375 -4.453125 -1.234375 -9.234375q0 -4.78125 1.234375 -9.1875q1.25 -4.40625 3.5 -8.265625q2.25 -3.875 5.4375 -7.03125q3.1875 -3.171875 7.03125 -5.421875q3.84375 -2.25 8.265627 -3.484375q4.4375 -1.25 9.21875 -1.25q6.234375 0 12.0 2.140625q5.765625 2.125 10.453125 6.109375l-7.03125 11.71875q-3.046875 -3.09375 -7.03125 -4.84375q-3.984375 -1.765625 -8.390625 -1.765625q-4.40625 0 -8.28125 1.6875q-3.859377 1.6875 -6.765627 4.578125q-2.90625 2.875 -4.59375 6.75q-1.6875 3.859375 -1.6875 8.265625q0 4.453125 1.6875 8.34375q1.6875 3.890625 4.59375 6.796875q2.90625 2.90625 6.765627 4.59375q3.875 1.6875 8.28125 1.6875q2.53125 0 4.921875 -0.609375q2.390625 -0.609375 4.546875 -1.6875l0 -19.125l12.984375 0l0 26.53125zm23.8125 -46.96875l0 26.90625l13.453125 0q2.765625 0 5.203125 -1.046875q2.4375 -1.0625 4.265625 -2.890625q1.828125 -1.828125 2.875 -4.28125q1.0625 -2.46875 1.0625 -5.234375q0 -2.765625 -1.0625 -5.21875q-1.046875 -2.46875 -2.875 -4.296875q-1.828125 -1.828125 -4.265625 -2.875q-2.4375 -1.0625 -5.203125 -1.0625l-13.453125 0zm0 53.765625l-13.453125 0l0 -67.21875l26.90625 0q3.703125 0 7.125 0.96875q3.421875 0.953125 6.390625 2.71875q2.984375 1.75 5.4375 4.21875q2.46875 2.453125 4.21875 5.453125q1.765625 3.0 2.71875 6.421875q0.9687424 3.421875 0.9687424 7.125q0 3.46875 -0.8749924 6.75q-0.859375 3.28125 -2.484375 6.234375q-1.609375 2.953125 -3.953125 5.4375q-2.34375 2.484375 -5.25 4.3125l7.453125 17.578125l-14.296875 0l-5.859375 -13.546875l-15.046875 0.09375l0 13.453125zm95.20312 0l-46.078125 0l0 -67.21875l46.078125 0l0 13.453125l-32.625 0l0 13.453125l22.078125 0l0 13.453125l-22.078125 0l0 13.40625l32.625 0l0 13.453125zm48.984375 -26.859375l0 -13.453125q0 -2.765625 -1.0625 -5.21875q-1.046875 -2.46875 -2.875 -4.296875q-1.828125 -1.828125 -4.296875 -2.875q-2.453125 -1.0625 -5.21875 -1.0625q-2.765625 0 -5.234375 1.0625q-2.453125 1.046875 -4.28125 2.875q-1.828125 1.828125 -2.890625 4.296875q-1.046875 2.453125 -1.046875 5.21875l0 13.453125l26.90625 0zm13.453125 26.859375l-13.453125 0l0 -13.453125l-26.90625 0l0 13.453125l-13.40625 0l0 -40.3125q0 -5.578125 2.109375 -10.46875q2.109375 -4.90625 5.734375 -8.5625q3.640625 -3.65625 8.53125 -5.765625q4.90625 -2.109375 10.484375 -2.109375q5.578125 0 10.46875 2.109375q4.90625 2.109375 8.5625 5.765625q3.65625 3.65625 5.765625 8.5625q2.109375 4.890625 2.109375 10.46875l0 40.3125zm39.890625 0l-13.40625 0l0 -53.765625l-20.203125 0l0 -13.453125l53.765625 0l0 13.453125l-20.15625 0l0 53.765625zm67.59375 -53.765625l0 26.90625l13.453125 0q2.765625 0 5.203125 -1.046875q2.4375 -1.0625 4.265625 -2.890625q1.828125 -1.828125 2.875 -4.28125q1.0625 -2.46875 1.0625 -5.234375q0 -2.765625 -1.0625 -5.21875q-1.046875 -2.46875 -2.875 -4.296875q-1.828125 -1.828125 -4.265625 -2.875q-2.4375 -1.0625 -5.203125 -1.0625l-13.453125 0zm0 53.765625l-13.453125 0l0 -67.21875l26.90625 0q3.703125 0 7.125 0.96875q3.421875 0.953125 6.390625 2.71875q2.984375 1.75 5.4375 4.21875q2.46875 2.453125 4.21875 5.453125q1.765625 3.0 2.71875 6.421875q0.96875 3.421875 0.96875 7.125q0 3.46875 -0.875 6.75q-0.859375 3.28125 -2.484375 6.234375q-1.609375 2.953125 -3.953125 5.4375q-2.34375 2.484375 -5.25 4.3125l7.453125 17.578125l-14.296875 0l-5.859375 -13.546875l-15.046875 0.09375l0 13.453125zm95.203125 0l-46.078125 0l0 -67.21875l46.078125 0l0 13.453125l-32.625 0l0 13.453125l22.078125 0l0 13.453125l-22.078125 0l0 13.40625l32.625 0l0 13.453125zm48.984375 -26.859375l0 -13.453125q0 -2.765625 -1.0625 -5.21875q-1.046875 -2.46875 -2.875 -4.296875q-1.828125 -1.828125 -4.296875 -2.875q-2.453125 -1.0625 -5.21875 -1.0625q-2.765625 0 -5.234375 1.0625q-2.453125 1.046875 -4.28125 2.875q-1.828125 1.828125 -2.890625 4.296875q-1.046875 2.453125 -1.046875 5.21875l0 13.453125l26.90625 0zm13.453125 26.859375l-13.453125 0l0 -13.453125l-26.90625 0l0 13.453125l-13.40625 0l0 -40.3125q0 -5.578125 2.109375 -10.46875q2.109375 -4.90625 5.734375 -8.5625q3.640625 -3.65625 8.53125 -5.765625q4.90625 -2.109375 10.484375 -2.109375q5.578125 0 10.46875 2.109375q4.90625 2.109375 8.5625 5.765625q3.65625 3.65625 5.765625 8.5625q2.109375 4.890625 2.109375 10.46875l0 40.3125zm65.53128 -33.609375q0 4.640625 -1.203125 8.9375q-1.1875 4.28125 -3.390625 8.015625q-2.203125 3.71875 -5.25 6.796875q-3.046875 3.0625 -6.796875 5.265625q-3.75 2.203125 -8.046875 3.40625q-4.28125 1.1875 -8.921875 1.1875l-20.25 0l0 -67.21875l20.25 0q4.640625 0 8.921875 1.203125q4.296875 1.1875 8.046875 3.390625q3.75 2.203125 6.796875 5.28125q3.046875 3.0625 5.25 6.796875q2.203125 3.71875 3.390625 8.015625q1.203125 4.28125 1.203125 8.921875zm-13.453125 0q0 -4.171875 -1.578125 -7.828125q-1.5625 -3.65625 -4.3125 -6.390625q-2.734375 -2.75 -6.421875 -4.34375q-3.671875 -1.59375 -7.84375 -1.59375l-6.703125 0l0 40.3125l6.703125 0q4.171875 0 7.84375 -1.5625q3.6875 -1.578125 6.421875 -4.3125q2.75 -2.75 4.3125 -6.421875q1.578125 -3.6875 1.578125 -7.859375zm35.8125 33.609375l-13.453125 0l0 -67.21875l13.453125 0l0 67.21875zm66.234375 0l-14.390625 0l-25.921875 -44.25l0 44.25l-13.453125 0l0 -67.21875l14.390625 0l25.921875 44.296875l0 -44.296875l13.453125 0l0 67.21875zm65.953125 -6.796875q-4.6875 3.984375 -10.453125 6.125q-5.765625 2.125 -12.0 2.125q-4.78125 0 -9.21875 -1.25q-4.421875 -1.234375 -8.265625 -3.5q-3.84375 -2.28125 -7.03125 -5.4375q-3.1875 -3.171875 -5.4375 -7.03125q-2.25 -3.875 -3.5 -8.328125q-1.234375 -4.453125 -1.234375 -9.234375q0 -4.78125 1.234375 -9.1875q1.25 -4.40625 3.5 -8.265625q2.25 -3.875 5.4375 -7.03125q3.1875 -3.171875 7.03125 -5.421875q3.84375 -2.25 8.265625 -3.484375q4.4375 -1.25 9.21875 -1.25q6.234375 0 12.0 2.140625q5.765625 2.125 10.453125 6.109375l-7.03125 11.71875q-3.046875 -3.09375 -7.03125 -4.84375q-3.984375 -1.765625 -8.390625 -1.765625q-4.40625 0 -8.28125 1.6875q-3.859375 1.6875 -6.765625 4.578125q-2.90625 2.875 -4.59375 6.75q-1.6875 3.859375 -1.6875 8.265625q0 4.453125 1.6875 8.34375q1.6875 3.890625 4.59375 6.796875q2.90625 2.90625 6.765625 4.59375q3.875 1.6875 8.28125 1.6875q2.53125 0 4.921875 -0.609375q2.390625 -0.609375 4.546875 -1.6875l0 -19.125l12.984375 0l0 26.53125z" fill-rule="nonzero"/><path fill="#ffffff" d="m24.16001 277.39438l0 26.90625l13.453127 0q2.765625 0 5.203125 -1.046875q2.4375 -1.0625 4.265625 -2.890625q1.828125 -1.828125 2.875 -4.28125q1.0625 -2.46875 1.0625 -5.234375q0 -2.765625 -1.0625 -5.21875q-1.046875 -2.46875 -2.875 -4.296875q-1.828125 -1.828125 -4.265625 -2.875q-2.4375 -1.0625 -5.203125 -1.0625l-13.453127 0zm0 53.765625l-13.453125 0l0 -67.21875l26.906252 0q3.703125 0 7.125 0.96875q3.421875 0.953125 6.390625 2.71875q2.984375 1.75 5.4375 4.21875q2.46875 2.453125 4.21875 5.453125q1.765625 3.0 2.71875 6.421875q0.96875 3.421875 0.96875 7.125q0 3.46875 -0.875 6.75q-0.859375 3.28125 -2.484375 6.234375q-1.609375 2.953125 -3.953125 5.4375q-2.34375 2.484375 -5.25 4.3125l7.453125 17.578125l-14.296875 0l-5.859375 -13.546875l-15.046877 0.09375l0 13.453125zm88.6875 -26.859375l0 -13.453125q0 -2.765625 -1.0625 -5.21875q-1.046875 -2.46875 -2.875 -4.296875q-1.828125 -1.828125 -4.296875 -2.875q-2.453125 -1.0625 -5.21875 -1.0625q-2.765625 0 -5.234375 1.0625q-2.453125 1.046875 -4.28125 2.875q-1.828125 1.828125 -2.890625 4.296875q-1.046875 2.453125 -1.046875 5.21875l0 13.453125l26.90625 0zm13.453125 26.859375l-13.453125 0l0 -13.453125l-26.90625 0l0 13.453125l-13.40625 0l0 -40.3125q0 -5.578125 2.109375 -10.46875q2.109375 -4.90625 5.734375 -8.5625q3.640625 -3.65625 8.53125 -5.765625q4.90625 -2.109375 10.484375 -2.109375q5.578125 0 10.46875 2.109375q4.90625 2.109375 8.5625 5.765625q3.65625 3.65625 5.765625 8.5625q2.109375 4.890625 2.109375 10.46875l0 40.3125zm65.34374 -6.890625q-4.6875 4.03125 -10.5 6.1875q-5.8125 2.15625 -12.046875 2.15625q-4.78125 0 -9.21875 -1.25q-4.421875 -1.234375 -8.296875 -3.5q-3.859375 -2.28125 -7.046875 -5.46875q-3.1875 -3.1875 -5.46875 -7.046875q-2.265625 -3.875 -3.515625 -8.296875q-1.234375 -4.4375 -1.234375 -9.21875q0 -4.78125 1.234375 -9.234375q1.25 -4.453125 3.515625 -8.3125q2.28125 -3.875 5.46875 -7.0625q3.1875 -3.1875 7.046875 -5.453125q3.875 -2.28125 8.296875 -3.515625q4.4375 -1.25 9.21875 -1.25q6.234375 0 12.046875 2.140625q5.8125 2.125 10.5 6.203125l-7.125 11.71875q-2.953125 -3.1875 -6.984375 -4.890625q-4.03125 -1.71875 -8.4375 -1.71875q-4.453125 0 -8.34375 1.6875q-3.890625 1.6875 -6.796875 4.578125q-2.90625 2.875 -4.59375 6.796875q-1.6875 3.90625 -1.6875 8.3125q0 4.40625 1.6875 8.28125q1.6875 3.859375 4.59375 6.765625q2.90625 2.90625 6.796875 4.59375q3.890625 1.6875 8.34375 1.6875q4.40625 0 8.4375 -1.703125q4.03125 -1.71875 6.984375 -4.90625l7.125 11.71875zm53.859375 6.890625l-46.078125 0l0 -67.21875l46.078125 0l0 13.453125l-32.625 0l0 13.453125l22.078125 0l0 13.453125l-22.078125 0l0 13.40625l32.625 0l0 13.453125z" fill-rule="nonzero"/></g></svg>